<svg viewBox="0 0 21 25" fill="none" xmlns="http://www.w3.org/2000/svg" aria-hidden="true" role="img" size="25" icon="sports-promotion/atp" style="--vicon-with-gradient-problem__size:25px;"><g clip-path="url(#atp_svg__clip0)"><path fill-rule="evenodd" clip-rule="evenodd" d="M2.693 0h15.332c.354.001.692.138.942.382.25.243.39.573.392.917v22.403a1.287 1.287 0 01-.392.916c-.249.243-.586.38-.94.382H2.694c-.354 0-.692-.138-.942-.38a1.285 1.285 0 01-.392-.918V1.3C1.36.955 1.5.625 1.75.382 2 .138 2.339 0 2.693 0zm2.792 19.987l1.356-1.704.36 1.704H5.485zm1.909.894c.066.262.096.379.564.4l.004-.002h.668l-.966-3.703h-.669c-.664 0-.719.023-1.078.456L3.204 21.28h.21c.658 0 .897.001 1.07-.105.1-.061.177-.157.299-.307l.006-.008.21-.26h2.33l.06.26.005.02zm5.633-2.907a.417.417 0 01-.17.201c-.12.073-.329.086-.728.086h-.649l-.888 3.02c-1.027 0-1.104-.022-.937-.577l.718-2.448H8.907c.189-.622.238-.673.966-.673h3.274c-.033.13-.073.258-.12.382v.009zm1.615.281h.869c.996 0 .987.31.907.564-.168.591-.18.591-1.187.591h-.929l.34-1.155zm-.529 1.806h.9l-.002.006c2.056 0 2.395-.715 2.554-1.243.159-.529.15-1.228-1.886-1.228h-1.486c-.502.037-.561.243-.637.505l-.021.073-.739 2.52c-.09.298-.1.435 0 .515.145.091.578.084.833.08l.114-.001.18-.592.19-.635zM3.997 9.618l-.067-.043a.308.308 0 00-.13-.241V8.83c0-.034.02-.037.037-.035a.607.607 0 01.116.09.998.998 0 00.242.157c.082.053.178.08.276.08h.095a.114.114 0 01.064.03c.01.01.01.023 0 .051a.505.505 0 01-.093.1l-.047.039c-.078.064-.233.191-.322.272l-.17.004zm.036-3.252c.175-.424.812-1.614 1.778-1.188.856.38.799 1.543.455 2.27-.5 1.053-1.27 1.727-1.997 1.335-.774-.419-.512-1.749-.236-2.421v.004zm14.145 4.155c-.026-.096-.178-.148-.178-.148 0-.118-.174-.157-.174-.157l-.01-.012c-.034-.134-.186-.102-.186-.102v-.03c-.026-.088-.17-.059-.17-.059-.065-.106-.192-.012-.192-.012a.141.141 0 01-.117.071c-.186.01-.204.107-.204.107l-.049.134c-.117.238-.052.33-.052.33.023.044.043.09.06.135.016.117.045.232.088.343-.101.018-.118.135-.118.135-.032.11-.374.473-.374.473-.091.047-.026.162-.026.162a2.766 2.766 0 01-.497.403 6.31 6.31 0 00-1.211 1.014 2.891 2.891 0 00-.966.03v-.06a3.085 3.085 0 00-.627.239.387.387 0 01-.214 0c-.463-.239-1.289-.166-1.289-.166-.177.035-.351.08-.523.135l-.807.035-.049-.135c-.016-.038-.079-.06-.079-.06h-.008a.522.522 0 00-.018-.135l-.02-.48.207-.269c.062 0-.049-.651-.049-.651.02-.1-.152-.473-.152-.473a.543.543 0 00-.156-.474.885.885 0 01-.138-.24c-.023-.096-.321-.25-.526-.32-.204-.068-.577 0-1.01.27-.434.269-.514.838-.514.922 0 .045.044.185.083.308.034.11.064.205.055.207a.04.04 0 01-.01.001c-.026.001-.08.003-.027.215.06.24.363.423.363.423.065.02.19.443.24.622l-.056.021-.046.085-.105.076c-.08.016-.162.024-.244.026a2.834 2.834 0 00-1.174-.03l-.634-.312-.042.064a1.57 1.57 0 00-.572-.068s-.454-.889-.87-1.21v-.032c.026-.017.016-.065.008-.11-.004-.02-.008-.04-.008-.054 0-.047-.13-.19-.13-.19l-.18-.281s-.06-.135-.083-.222a.056.056 0 00-.012-.027.058.058 0 00-.056-.02.058.058 0 00-.028.012c-.033-.093-.042-.19-.01-.214.083-.219.148-.443.195-.672.008-.06-.08-.254-.132-.371l-.035-.078c.185-.16.533-.455.623-.506.69-.404 1.298-.923 1.584-1.673.448-1.177.227-2.187-.553-2.573l-.03-.015-.037-.017-.033-.015c-.747-.247-1.6.17-2.127 1.305-.338.727-.353 1.5-.17 2.315.044.24.057.482.04.724v.051l-.218.036c-.088.04-.066.099-.066.099l.057.32-.01.01a.13.13 0 00-.08.048.124.124 0 00-.026.087l-.01.01c-.113.02-.106.186-.106.186a.14.14 0 00-.099.07.132.132 0 00-.003.119c-.1.063-.042.147-.003.204l.018.027c.033.055.185.386.185.386l-.19.485-.444 1.045a.084.084 0 01-.033.04l-.025.015s-.02.015-.025.064c.066.07.148.125.24.158.12.06.17.069.213.062.03-.036.03-.053.028-.063v-.019-.01a.09.09 0 010-.048l.357-.858.138-.32.03.038a.049.049 0 00-.032.05c0 .007.003.014.007.02l.015.045c.01.029.016.048.036.068.03.025.05.06.058.1a.4.4 0 01.008.088c0 .038.001.073.014.089l.037.055a.517.517 0 00.024.085c.012.037.026.078.034.129.014.091.046.06.046.06h.016l.046.111c.186.452.58 1.413 1.12 1.9.156.032.303.094.434.182l-.012.018-.044.073s.149.073.268.145c.3.181.612.344.933.488l.164.832c-1.3.343-2.489.862-3.513 1.52 2.04-.916 4.526-1.454 7.207-1.454 2.68 0 5.167.538 7.211 1.46-1.535-.988-3.441-1.665-5.542-1.902.154-.303.472-.446.472-.446.109-.073 1.053-.175 1.053-.175v-.071c1.171-.254 1.751-.683 1.751-.683.235-.038.261-.097.261-.097.05-.053.106-.102.166-.146.67-.44 1.38-1.663 1.38-1.663a.14.14 0 00.161-.041.134.134 0 00.026-.052c.056-.077.384-.487.384-.487.095-.085.038-.152.038-.152l-.048-.059.018-.017a.702.702 0 00.077-.14c.021-.046.04-.087.054-.103a2.13 2.13 0 00.127-.238c.036-.091.076-.181.122-.268a.275.275 0 00.056-.225v-.01zM5.254 21.776H3.949c-.26.019-.291.14-.333.309l-.008.03-.39 1.478c-.042.164-.046.243 0 .285.072.053.298.049.432.046h.063l.24-.901h1.27c.099-.36.078-.386-.325-.386h-.836l.12-.47h1.37c.025-.072.044-.147.058-.222.02-.17-.132-.169-.32-.168h-.036v-.001zm.436 1.817l.487-1.817c.541 0 .588.014.504.319l-.488 1.829c-.546 0-.588-.012-.503-.331zm3.582-1.523l-.326 1.22-.77-1.287c-.134-.232-.186-.232-.493-.231H7.375l-.362 1.362-.125.453c-.084.323-.043.335.502.335l.415-1.53.775 1.279.007.012c.12.207.138.24.497.24h.289l.577-2.153c-.541 0-.6.009-.67.298l-.008.002zm4.537 1.468h.604c.214 0 .31.013.352.055.057.052.014.194-.014.286l-.013.045h-1.117c-.43 0-.502 0-.414-.335l.482-1.813h.066c.137-.003.361-.008.432.046.053.041.048.126 0 .294l-.378 1.422zm1.702-1.12c-.106.447.372.517.797.578l.17.026c.168.03.477.105.428.285l-.003.013c-.011.05-.038.162-.096.185a3.38 3.38 0 01-.54.02h-.524c-.21 0-.32.008-.383.054-.063.045-.1.126-.157.348h.966c.876 0 1.243-.319 1.32-.642.128-.471-.374-.55-.834-.621a3.808 3.808 0 01-.371-.07c-.152-.043-.199-.113-.182-.18l.001-.006.004-.017c.013-.057.04-.177.098-.199.165-.025.332-.034.499-.026h.566c.399 0 .43-.025.53-.394h-.976c-.786 0-1.217.24-1.316.646h.003zm-3.607-.646h.35l.513 2.148h-.352c-.246-.012-.262-.08-.297-.23l-.003-.013-.032-.15H10.86l-.11.15-.005.008c-.067.089-.108.144-.163.18-.095.06-.227.06-.586.06h-.085l1.427-1.884c.189-.255.22-.269.566-.269zm-.079.402l-.714.99h.903l-.189-.99zm6.193 1.983h-.11l.013-.065h.296l-.014.065h-.107l-.06.284h-.078l.06-.284zm.346-.063h-.108l-.07.348h.073l.052-.277.035.277h.06l.149-.277-.064.277h.073l.075-.348h-.11l-.137.251-.028-.251z" fill="#78D6FF"></path></g><defs><clipPath id="atp_svg__clip0"><path fill="#fff" transform="translate(.026)" d="M0 0h20v25H0z"></path></clipPath></defs></svg>