<svg viewBox="0 0 24 25" fill="none" xmlns="http://www.w3.org/2000/svg" aria-hidden="true" role="img" size="25" icon="sports-promotion/nhl" style="--vicon-with-gradient-problem__size:25px;"><g clip-path="url(#nhl_svg__clip0)" fill="#fff"><path d="M22.028 6.216l.857-1.87-2.02-.573c-.615-.175-1.068-.634-1.346-1.364L18.627.062l-1.99 1.585c-.528.42-1.063.633-1.59.633-.705 0-1.507-.33-2.044-.84L11.721.22 10.44 1.44c-.536.51-1.339.84-2.043.84-.527 0-1.062-.213-1.59-.633L4.816.062 3.923 2.41c-.277.73-.73 1.188-1.346 1.363l-2.019.573.857 1.87c.396.863.596 1.764.596 2.677 0 2.528-1.34 3.103-1.34 5.911 0 4.045 3.252 6.692 6.275 7.44 1.528.358 1.989.382 3.368.709l1.407 1.456 1.408-1.456c1.379-.327 1.84-.351 3.368-.709 3.022-.748 6.276-3.395 6.276-7.44 0-2.808-1.341-3.383-1.341-5.91 0-.914.2-1.815.596-2.678zm-.22 5.67c.323.777.635 1.588.635 2.918 0 3.695-2.862 6.35-6.029 7.133-1.565.38-2.295.417-3.462.732-.152.153-1.23 1.274-1.23 1.274s-1.078-1.121-1.23-1.274c-1.167-.315-1.897-.352-3.462-.732-2.447-.605-4.71-2.326-5.613-4.78A6.766 6.766 0 011 14.804c0-2.76 1.34-3.282 1.34-5.91 0-1.077-.268-2.031-.624-2.806l-.704-1.54 1.658-.47c.722-.205 1.248-.73 1.563-1.559L4.965.594l1.63 1.298c.537.427 1.15.706 1.801.706.873 0 1.736-.419 2.276-.932l1.05-.999 1.05.999c.54.513 1.403.932 2.275.932.65 0 1.264-.28 1.8-.706l1.63-1.298.732 1.925c.315.83.84 1.354 1.563 1.559l1.658.47-.704 1.54a6.74 6.74 0 00-.625 2.806c0 1.361.36 2.157.707 2.992z"></path><path d="M21.391 5.018s-2.56-.215-3.253-3.207c0 0-1.535 1.52-3.09 1.52-2.006 0-3.326-1.64-3.326-1.64s-1.32 1.64-3.326 1.64c-1.556 0-3.09-1.52-3.09-1.52-.694 2.993-3.254 3.207-3.254 3.207s1.041 1.771 1.041 3.87c0 .275-.014.529-.04.768-.22 2.095-1.299 2.936-1.299 5.148 0 2.713 1.933 5.562 5.463 6.42 1.677.408 2.834.512 3.686.807.11.099.819.838.819.838s.709-.74.818-.838c.852-.295 2.01-.4 3.686-.807 3.53-.858 5.463-3.707 5.463-6.42 0-2.464-1.339-3.225-1.339-5.917 0-2.098 1.041-3.87 1.041-3.87zm-.455 9.786c0 3.136-2.541 5.133-4.898 5.708-1.866.456-3.086.508-3.905.888 0 0-.299.262-.411.383-.114-.121-.411-.383-.411-.383-.82-.38-2.04-.432-3.906-.888-2.356-.575-4.898-2.572-4.898-5.708 0-2.243 1.339-3.067 1.339-5.917 0-1.92-.755-3.4-.755-3.4S4.833 5.15 5.645 3.03c0 0 1.156 1.038 2.751 1.038 1.999 0 3.326-1.35 3.326-1.35s1.327 1.35 3.325 1.35c1.596 0 2.752-1.038 2.752-1.038.811 2.12 2.554 2.459 2.554 2.459s-.756 1.48-.756 3.4c0 2.85 1.34 3.673 1.34 5.916z"></path><path d="M15.047 4.889c-1.492 0-2.659-.626-3.326-1.097-.667.47-1.833 1.097-3.325 1.097-.985 0-1.824-.32-2.415-.639a4.684 4.684 0 01-1.79 1.687c.236.68.51 1.732.51 2.95 0 2.346-.833 3.445-1.185 4.773l12.218-8.823c-.219.033-.449.052-.687.052zM18.741 8.888c0-1.218.275-2.27.511-2.951a4.638 4.638 0 01-1.545-1.329L3.364 14.965c.07 2.037 1.438 3.52 3.002 4.292l12.479-9.01a8.608 8.608 0 01-.104-1.36zm-9 7.017l-1.11.8-1.196-1.761v2.627l-1.05.758v-3.716c0-.525-.521-.539-.521-.539L7.352 13l1.34 1.973v-2.94l1.05-.759v4.63zm4.235-3.057l-1.027.741v-1.693l-1.185.855v1.694l-1.078.778v-3.715c0-.525-.521-.54-.521-.54l1.6-1.154v1.711l1.184-.855V8.959l1.027-.742v4.63zm3.873-2.798l-2.978 2.15V8.486c0-.525-.52-.539-.52-.539l1.599-1.155v3.449l1.9-1.371s-.065.44 0 1.181zM7.448 19.671c.056.016.112.03.168.044 1.478.361 3.286.547 3.832.847.123.087.274.24.274.24s.15-.153.274-.24c.546-.3 2.354-.486 3.832-.847 2.048-.501 4.254-2.25 4.254-4.911 0-1.327-.605-2.2-1.002-3.532l-11.632 8.4z"></path></g><defs><clipPath id="nhl_svg__clip0"><path fill="#fff" transform="translate(.026)" d="M0 0h23.333v25H0z"></path></clipPath></defs></svg>