<svg viewBox="0 0 34 25" fill="none" xmlns="http://www.w3.org/2000/svg" aria-hidden="true" role="img" size="25" icon="sports-promotion/wta" style="--vicon-with-gradient-problem__size:25px;"><g clip-path="url(#wta_svg__clip0)"><path d="M27.193 15.161c0 .593-.482 1.074-1.077 1.074s-1.077-.481-1.077-1.074c0-.592.482-1.073 1.077-1.073s1.077.48 1.077 1.073z" fill="#F3ED0E"></path><path fill-rule="evenodd" clip-rule="evenodd" d="M1.642 11.096c1.81-3.94 5.946-7.423 11.062-9.318C15.327.808 18.102.294 20.727.294c5.82 0 10.408 2.445 11.974 6.381.886 2.226.746 4.726-.405 7.23-1.811 3.94-5.946 7.423-11.062 9.316-2.624.972-5.398 1.485-8.024 1.485-5.82 0-10.407-2.445-11.973-6.38-.886-2.227-.746-4.726.405-7.23zm20.767-2.315c.545.027.951.387.951.921 0 .533-.424.921-.96.936a2.119 2.119 0 01-.174.005h-2.47v4.42l-.007.149c-.022.556-.403.981-.96.981-.538 0-.96-.437-.976-.98l-.007-.142V10.64h-2.47s-2.121 4.634-2.188 4.767c-.062.122-.117.22-.145.26-.22.32-.418.524-.83.524-.397 0-.636-.202-.827-.518a3.38 3.38 0 01-.133-.236c-.035-.07-1.567-3.426-1.567-3.426l-1.506 3.3s-.096.212-.147.3c-.227.392-.523.58-.887.58-.351 0-.65-.204-.86-.577l-.012-.022c-.039-.069-.079-.139-.117-.224l-1.198-2.61-1.118-2.436c-.04-.088-.05-.112-.067-.155l-.002-.005c-.198-.49-.083-.778.002-.923.17-.288.5-.486.851-.466.48.026.727.292.935.73l.071.134 1.514 3.305S8.56 9.755 8.615 9.64l.095-.191c.275-.53.57-.677.934-.677.39 0 .696.203.94.697 0 0 .05.094.1.207l1.49 3.268 1.589-3.475s.036-.083.095-.182a.908.908 0 01.828-.513h.008c.065-.002.088-.002.212-.002h7.32a1.694 1.694 0 01.183.01zm7.612 5.695l.06.108.002.003c.123.223.233.423.233.662 0 .534-.422.94-.956.94-.352 0-.653-.213-.875-.553l-.068-.105-2.287-3.976-2.29 3.959-.085.131c-.225.333-.517.545-.87.544a.939.939 0 01-.954-.944c0-.24.096-.416.22-.643l.094-.16 2.945-4.99.099-.15c.204-.321.472-.529.84-.537.369.008.628.207.832.52l.095.147 2.965 5.044z" fill="#C755FF"></path></g><defs><clipPath id="wta_svg__clip0"><path fill="#fff" transform="translate(.359)" d="M0 0h33.333v25H0z"></path></clipPath></defs></svg>