<svg viewBox="0 0 61 25" fill="none" xmlns="http://www.w3.org/2000/svg" aria-hidden="true" role="img" size="25" icon="sports-promotion/uefa" style="--vicon-with-gradient-problem__size:25px;"><path d="M59.371 13.482A40.604 40.604 0 0046.091 4.5a40.74 40.74 0 00-15.733-3.133 40.73 40.73 0 00-15.732 3.132 40.61 40.61 0 00-13.28 8.98l-.987-.951a42 42 0 0113.734-9.283A42.12 42.12 0 0130.358 0c5.764 0 11.26 1.155 16.267 3.247a41.968 41.968 0 0113.734 9.284l-.988.95zM47.63 24.99a23.501 23.501 0 00-7.848-5.574 23.545 23.545 0 00-9.427-1.953c-3.358 0-6.549.7-9.433 1.956A23.48 23.48 0 0013.072 25l-1.019-.925a24.861 24.861 0 018.314-5.905 24.913 24.913 0 019.988-2.074c3.548 0 6.926.74 9.98 2.07a24.844 24.844 0 018.307 5.9l-1.012.924z" fill="#fff"></path><path fill-rule="evenodd" clip-rule="evenodd" d="M11.16 9.498l3.003 3.85c1.753 2.248.813 4.207-1.066 5.645-1.988 1.523-4.14 1.706-5.777-.392l-3.01-3.86 1.707-1.307 3.042 3.899c.76.975 1.932 1.016 2.916.263.905-.692 1.374-1.798.427-3.01l-2.949-3.78 1.707-1.308zm16.707 3.386l-6.242 1.324-1.815-8.383 6.157-1.305.332 1.536-4.046.857.38 1.759 3.86-.818.333 1.535-3.86.819.435 2.017 4.134-.877.332 1.536zm12.741-5.7l-3.738-.721-.369 1.875 3.738.72-.301 1.543-3.739-.72-.677 3.455-2.12-.406 1.651-8.417L40.91 5.64l-.302 1.543zm9.37 8.924l-2.19-1.504 2.96-2.022-.77 3.526zm2.95-4.521l-2.054-1.412-7.801 5.076 1.877 1.29 1.507-1.03 3.182 2.185-.391 1.796 1.908 1.312 1.772-9.217z" fill="#fff"></path></svg>