<svg viewBox="0 0 55 25" fill="none" xmlns="http://www.w3.org/2000/svg" aria-hidden="true" role="img" size="25" icon="sports-promotion/fiba" style="--vicon-with-gradient-problem__size:25px;"><path d="M5.567 5.266v5.13h6.963v4.55H5.567V25H.692V2.258c0-1.235.48-1.711 1.714-1.711h11.535v4.72H5.567zM15.583 25V2.258c0-1.232.486-1.711 1.72-1.711h3.155V25h-4.875zM32.68 7.657c0 1.986-1.166 2.976-2.85 2.976H27.7V4.679h2.13c1.684 0 2.85.995 2.85 2.978zm4.975 10.364c0-3.319-1.785-4.889-3.09-5.337 1.166-.542 2.918-1.912 2.918-5.677 0-3.419-2.334-6.463-7.312-6.463h-5.522c-1.236 0-1.72.48-1.72 1.711v22.743h7.45c4.186 0 7.276-2.329 7.276-6.977zm-4.91-.27c0 2.051-1.199 3.044-2.882 3.044H27.7v-6.093h2.162c1.683 0 2.882.993 2.882 3.049zM49.15 12.21h-4.527V7.181c0-1.028.34-2.772 2.265-2.772 1.922 0 2.263 1.744 2.263 2.772v5.03zM54.027 25V6.632c0-1.88-1.03-6.632-7.138-6.632-6.114 0-7.14 4.752-7.14 6.632V25h4.875v-8.242h4.528V25h4.874z" fill="#fff"></path></svg>