<svg viewBox="0 0 77 25" fill="none" xmlns="http://www.w3.org/2000/svg" aria-hidden="true" role="img" size="25" icon="sports-promotion/fifa" style="--vicon-with-gradient-problem__size:25px;"><g clip-path="url(#fifa_svg__clip0)" fill-rule="evenodd" clip-rule="evenodd" fill="#036AFF"><path d="M.026 0v24.998h7.896v-9.026h5.486l2.133-5.464H7.92V5.436h9.274L19.218 0H.026zM21.632 0l-.014 24.998h7.804V0h-7.79zM60.047 16.832l3.007-10.408 3.114 10.408h-6.12zM67.232 0H59.13l-8.984 25h7.542l.971-3.362h8.793L68.467 25h7.774L67.232 0zM34.81 0v24.998h7.892v-9.026h5.48l2.148-5.464h-7.628V5.436h9.276L54.016 0H34.811z"></path></g><defs><clipPath id="fifa_svg__clip0"><path fill="#fff" transform="translate(.026)" d="M0 0h76.215v25H0z"></path></clipPath></defs></svg>