<svg viewBox="0 0 56 25" fill="none" xmlns="http://www.w3.org/2000/svg" aria-hidden="true" role="img" size="25" icon="sports-promotion/itf" style="--vicon-with-gradient-problem__size:25px;"><g clip-path="url(#itf_svg__clip0)"><path d="M47.784 12.275c-1.213-.55-2.392-1.206-3.574-1.206-.267 0-.568.006-.891.101.018-1.009.49-2.53 1.787-3.716.798-.73 1.668-1.106 2.54-1.106.702 0 1.658.165 2.405.473 2.09.863 3.054 2.16 3.054 3.423 0 .169-.01.335-.04.502-.206 1.154-1.144 2.267-2.621 2.267-.863 0-1.444-.16-2.66-.738z" fill="#FFE600"></path><path d="M49.065 17.405c3.215 0 5.883-2.695 5.883-5.909 0-1.74-.661-3.152-1.793-4.182-1.359-1.235-3.149-1.73-4.313-1.73-.258 0-.57.038-.829.11-.094.027-.147.073-.147.132 0 .08.065.128.3.141 1.732.094 3.64.885 4.733 1.992.94.95 1.185 1.96 1.151 2.677-.085 1.872-1.46 3.189-3.379 3.189-.78 0-1.597-.274-2.3-.597-1.467-.68-2.715-1.644-4.238-1.644-.683 0-.828.222-.828.519 0 1.123.61 2.549 1.746 3.642.972.935 2.322 1.66 4.014 1.66z" fill="#FFE600"></path><path d="M41.768 7.66C28.988.43 18.512-1.61 10.632 1.595 2.48 4.908.183 12.844.16 12.924a.3.3 0 00.185.364.31.31 0 00.386-.146c2.203-4.306 5.7-7.25 10.395-8.746 3.776-1.206 8.333-1.487 13.547-.837 8.911 1.11 16.735 4.606 16.814 4.641a.311.311 0 00.401-.137.303.303 0 00-.121-.402z" fill="#07C790"></path><path d="M5.418 24.97V10.812c0-.637.398-.866.948-.866h3.081v12.046c0 .339-.039.668-.116.944-.352 1.249-1.492 2.034-3.312 2.034h-.601zM20.452 12.75h3.23c1.12 0 1.5-.271 1.644-.826l.45-1.978H13.294c-.747 0-1.093.19-1.244.838l-.483 1.966h4.86v12.22h.599c1.782 0 2.979-.738 3.323-2.075a3.78 3.78 0 00.103-.912V12.75zM28.88 9.946c-.813 0-1.07.286-1.07.958v14.067h.602c1.984 0 3.07-.919 3.356-2.204.05-.232.075-.566.075-.82V18.77h2.588c.87 0 1.274-.225 1.494-.86l.586-1.944h-4.665V12.76h4.377c1.074 0 1.395-.319 1.63-1.064l.553-1.75H28.88z" fill="#07C790"></path></g><defs><clipPath id="itf_svg__clip0"><path fill="#fff" transform="translate(.026)" d="M0 0h55v25H0z"></path></clipPath></defs></svg>