<svg viewBox="0 0 74 25" fill="none" xmlns="http://www.w3.org/2000/svg" aria-hidden="true" role="img" size="25" icon="sports-promotion/ufc" style="--vicon-with-gradient-problem__size:25px;"><g clip-path="url(#ufc_svg__clip0)" fill="#FA4031"><path d="M6.013.307H15.4l-4.926 16.562c-.346 1.162.388 2.12 1.596 2.12 1.209 0 2.454-.958 2.799-2.12L19.795.307h8.324L22.43 21.479c-.502 1.867-2.497 3.396-4.433 3.396H3.596c-2.3 0-3.696-1.816-3.1-4.037L6.014.307zM38.56 9.354h9.639l-1.751 5.735h-9.643l-2.677 9.786h-9.062l4.431-15.52h9.063zM57.315.058h12.259c1.793 0 4.837 1.437 4.214 3.722l-.245.9h-10.94c-.562 0-1.147.45-1.298 1l-3.4 12.313c-.152.55.183 1 .745 1h10.99l-.797 2.922C68.38 23.608 66.563 25 64.77 25H51.828c-2.28 0-3.682-1.767-3.114-3.925l4.774-18.118c.42-1.594 2.142-2.899 3.827-2.899zM49.166 6.007h-9.62l-.004.017h-9.063L32.224 0h18.679l-1.736 6.007z"></path></g><defs><clipPath id="ufc_svg__clip0"><path fill="#fff" transform="translate(.359)" d="M0 0h73.512v25H0z"></path></clipPath></defs></svg>