<svg xmlns="http://www.w3.org/2000/svg" width="600" height="360" viewBox="0 0 600 360">
  <defs>
    <linearGradient id="bg" x1="0" x2="1" y1="0" y2="1">
      <stop offset="0%" stop-color="#ff7a3e"/>
      <stop offset="100%" stop-color="#ff3e7a"/>
    </linearGradient>
    <linearGradient id="flame" x1="0" x2="0" y1="0" y2="1">
      <stop offset="0%" stop-color="#fff3b0"/>
      <stop offset="100%" stop-color="#ff8a00"/>
    </linearGradient>
  </defs>
  <rect width="600" height="360" rx="28" fill="url(#bg)"/>
  <rect x="20" y="20" width="560" height="320" rx="22" fill="rgba(0,0,0,0.25)"/>
  <g opacity="0.6">
    <circle cx="120" cy="90" r="2" fill="#fff"/>
    <circle cx="160" cy="60" r="3" fill="#ffe6d5"/>
    <circle cx="510" cy="80" r="2" fill="#fff"/>
    <circle cx="460" cy="120" r="3" fill="#ffe6d5"/>
  </g>
  <g transform="translate(360 90) rotate(12)">
    <rect x="-30" y="40" width="60" height="120" rx="28" fill="#f7f7f7"/>
    <circle cx="0" cy="95" r="16" fill="#2b2f44"/>
    <circle cx="0" cy="95" r="9" fill="#7fd8ff"/>
    <path d="M-30 130 L-62 160 L-18 160 Z" fill="#ff9a3c"/>
    <path d="M30 130 L62 160 L18 160 Z" fill="#ff9a3c"/>
    <path d="M-14 160 L0 195 L14 160 Z" fill="url(#flame)"/>
  </g>
  <text x="60" y="210" fill="#ffffff" font-size="64" font-family="Segoe UI, Arial, sans-serif" font-weight="700">
    CRASH
  </text>
</svg>
