<svg data-v-8ac9d7dc="" xmlns="http://www.w3.org/2000/svg" width="18" height="18" viewBox="0 0 18 18" aria-hidden="true" role="img" class="item-icon icon icon-casino-category-slots sm" icon="casino/category/slots"><defs><linearGradient id="slots_svg__a" x1="0%" y1="91.88%" y2="8.12%"><stop offset="0%" stop-color="#0095ff"></stop><stop offset="100%" stop-color="#0854c3"></stop></linearGradient></defs><path fill="url(#slots_svg__a)" d="M4.216 1.44h8.876c1.097 0 1.709.118 2.347.459a3.405 3.405 0 011.41 1.407c.34.637.459 1.248.459 2.343v7.422c0 1.095-.118 1.706-.46 2.343a3.405 3.405 0 01-1.41 1.407c-.637.341-1.25.459-2.346.459H4.216c-1.097 0-1.709-.118-2.347-.459a3.405 3.405 0 01-1.41-1.407C.12 14.777 0 14.166 0 13.071V5.649c0-1.095.118-1.706.46-2.343a3.405 3.405 0 011.409-1.407c.638-.341 1.25-.459 2.347-.459zm0 1.44c-.965 0-1.314.1-1.667.289-.352.188-.63.464-.818.816-.188.352-.289.701-.289 1.664v7.422c0 .963.1 1.312.29 1.664.188.352.465.628.817.816.353.189.702.289 1.667.289h8.876c.964 0 1.314-.1 1.667-.289a1.96 1.96 0 00.817-.816c.189-.352.29-.701.29-1.664V5.649c0-.963-.101-1.312-.29-1.664a1.964 1.964 0 00-.817-.816c-.353-.189-.703-.289-1.667-.289H4.216zm1.553 0h1.443v.719a.721.721 0 11-1.443 0V2.88zM6.49 14.4c.399 0 .722.323.722.721v.719H5.769v-.719c0-.398.323-.721.721-.721zm3.606-11.52h1.442v.719a.721.721 0 11-1.442 0V2.88zm.721 11.52a.72.72 0 01.721.721v.719h-1.442v-.719c0-.398.323-.721.721-.721zM6.49 11.52h.003a.72.72 0 010 1.44H6.49a.72.72 0 010-1.44zm4.327 0h.002a.72.72 0 110 1.44h-.002a.72.72 0 010-1.44z" class="slots_svg__primary"></path><path fill="#fff" d="M3.655 7.855c-.425 0-.77-.308-.77-.688 0-.38.345-.687.77-.687H5.72c.292 0 .558.147.689.38a.626.626 0 01-.073.72l-.248.295a3.494 3.494 0 00-.836 2.237c0 .38-.345.688-.77.688-.427 0-.772-.308-.772-.687 0-.782.206-1.559.592-2.258h-.647zm4.327 0c-.425 0-.77-.308-.77-.688 0-.38.345-.687.77-.687h2.064c.292 0 .56.147.69.38a.626.626 0 01-.073.72l-.248.295a3.494 3.494 0 00-.836 2.237c0 .38-.345.688-.771.688-.426 0-.77-.308-.77-.687 0-.782.205-1.559.59-2.258h-.646zm4.74 3.142a.462.462 0 01-.462-.459.46.46 0 01.462-.458h1.239c.175 0 .335.098.413.253a.455.455 0 01-.043.48l-.15.197a2.487 2.487 0 00-.501 1.492.46.46 0 01-.462.458.46.46 0 01-.463-.458 3.4 3.4 0 01.355-1.505h-.388zm-.426-8.116c.416-.002.728-.002.936-.001.074 0 .185.003.332.008a2.9 2.9 0 00-.132.859c0 .316-.276.573-.616.573-.34 0-.617-.256-.617-.573 0-.291.033-.581.097-.866z"></path></svg>