<svg data-v-8ac9d7dc="" xmlns="http://www.w3.org/2000/svg" width="18" height="18" viewBox="0 0 18 18" aria-hidden="true" role="img" class="item-icon icon icon-casino-category-new sm" icon="casino/category/new"><defs><linearGradient id="new_svg__a" x1="0%" y1="100%" y2="0%"><stop offset="0%" stop-color="#0095ff"></stop><stop offset="100%" stop-color="#0854c3"></stop></linearGradient></defs><path fill="url(#new_svg__a)" d="M17.035 6.215c.125-.589.072-1.172-.243-1.716-.315-.543-.795-.88-1.368-1.066a3.725 3.725 0 00-.698-.154 3.673 3.673 0 00-.153-.697c-.185-.573-.52-1.054-1.064-1.37-.542-.317-1.127-.373-1.716-.25-.243.05-.434.112-.69.217C10.5.41 9.943 0 9 0c-.945 0-1.503.413-2.103 1.179a3.689 3.689 0 00-.688-.217c-.587-.123-1.17-.07-1.711.244-.543.314-.879.793-1.066 1.365a3.66 3.66 0 00-.157.703c-.276.038-.46.077-.694.153-.574.185-1.055.52-1.371 1.065-.315.542-.371 1.126-.248 1.715.05.243.112.433.217.69a3.683 3.683 0 00-.516.473C.253 7.824 0 8.362 0 9c0 .639.253 1.177.664 1.631.163.18.305.31.515.473-.106.259-.164.44-.215.681-.125.59-.072 1.173.243 1.717.315.542.795.879 1.368 1.065.232.076.43.118.699.155.037.277.077.462.152.696.185.574.52 1.054 1.064 1.37.81.473 1.513.39 2.404.03C7.495 17.585 8.054 18 9 18c.944 0 1.502-.413 2.103-1.18.258.106.442.165.682.216.588.124 1.17.072 1.712-.24.544-.314.881-.793 1.069-1.367a3.78 3.78 0 00.157-.703c.276-.037.461-.077.695-.152.574-.185 1.055-.521 1.371-1.065.47-.81.388-1.511.027-2.403C17.586 10.505 18 9.946 18 9c0-.638-.253-1.177-.665-1.63a3.694 3.694 0 00-.515-.473c.106-.26.164-.44.215-.682zm-1.388 1.677c.4.293.853.628.853 1.108 0 .481-.453.815-.852 1.11-.231.167-.52.38-.557.52.013.272.089.536.221.772.203.467.416.948.18 1.353-.235.405-.764.464-1.275.522a1.742 1.742 0 00-.762.18c-.117.238-.18.498-.181.763-.058.511-.124 1.044-.526 1.276-.402.231-.885.022-1.352-.181a1.76 1.76 0 00-.766-.224c-.139.035-.35.326-.522.557-.294.4-.627.852-1.108.852-.482 0-.815-.453-1.109-.852-.169-.23-.38-.519-.522-.557a1.79 1.79 0 00-.77.222c-.468.203-.949.416-1.354.18-.405-.236-.464-.764-.521-1.275a1.737 1.737 0 00-.182-.765 1.737 1.737 0 00-.762-.182c-.51-.054-1.042-.12-1.275-.522-.233-.402-.024-.886.18-1.353a1.73 1.73 0 00.224-.765c-.035-.14-.326-.352-.557-.522C1.952 9.816 1.5 9.482 1.5 9c0-.481.453-.815.852-1.108.23-.169.519-.381.557-.522a1.745 1.745 0 00-.225-.768c-.206-.467-.413-.951-.177-1.356.235-.405.764-.465 1.275-.522.264-.002.524-.063.76-.179.118-.237.18-.498.181-.762.058-.514.125-1.046.526-1.279.401-.232.885-.026 1.355.181.235.132.496.208.765.224.14-.035.351-.326.522-.557.294-.4.627-.852 1.109-.852.48 0 .814.453 1.11.852.17.23.381.519.522.557.269-.015.531-.092.766-.225.466-.206.951-.412 1.356-.176.405.236.464.764.522 1.275 0 .265.063.527.181.765.237.118.498.18.762.182.511.054 1.042.119 1.275.521.234.403.024.887-.18 1.354-.132.234-.21.496-.224.765.035.139.326.351.557.522z" class="new_svg__primary"></path><path fill="#fff" d="M8.507 8.603H9.68a.391.391 0 010 .782H8.507v.782H9.68a.391.391 0 010 .782H8.116a.391.391 0 01-.391-.39v-3.13a.39.39 0 01.391-.39H9.68a.391.391 0 010 .782H8.507v.782zm-1.86 2.346a.391.391 0 01-.312-.156l-1.643-2.19v1.955a.391.391 0 01-.782 0V7.43a.391.391 0 01.704-.235l1.643 2.19V7.43a.391.391 0 01.782 0v3.128a.391.391 0 01-.391.391zm6.59 0a.391.391 0 01-.371-.267l-.41-1.234-.411 1.234a.374.374 0 01-.387.266.391.391 0 01-.364-.295l-.782-3.129a.391.391 0 01.76-.189l.455 1.826.357-1.073a.407.407 0 01.743 0l.357 1.073.456-1.826a.391.391 0 11.76.19l-.783 3.128a.391.391 0 01-.364.295l-.016.001z"></path></svg>