<svg xmlns="http://www.w3.org/2000/svg" width="35" height="35" fill="none" viewBox="0 0 35 35">
    <g fill="#fff" clip-path="url(#clip0)">
        <path fill-rule="evenodd" d="M.002 16.545C.898 12.318 8.346 9 17.35 9c9.601 0 17.435 3.777 17.435 8.402-.002.546-.109 1.087-.316 1.593.061-.281.092-.568.092-.856 0-4.628-7.835-8.401-17.436-8.401-8.472 0-15.567 2.936-17.117 6.807H.002z" clip-rule="evenodd"/>
        <path fill-rule="evenodd" d="M35 18.286c-.895 4.226-8.344 7.546-17.347 7.546-9.6 0-17.435-3.776-17.435-8.401.002-.547.11-1.088.316-1.594-.06.282-.09.569-.09.857 0 4.629 7.835 8.402 17.435 8.402 8.472 0 15.568-2.937 17.116-6.807l.005-.003z" clip-rule="evenodd"/>
        <path d="M2.458 19.867l.03-.166h.214c.223 0 .379-.042.467-.128.088-.087.165-.276.23-.574l.93-4.22c.017-.075.03-.147.038-.216.008-.06.012-.122.013-.183.005-.044 0-.088-.014-.13-.014-.041-.037-.08-.067-.111-.081-.056-.18-.081-.278-.071h-.282l.031-.166h3.16l-.03.166h-.2c-.219 0-.373.044-.461.132-.088.088-.164.282-.227.579l-.928 4.219c-.018.081-.034.156-.043.225-.01.055-.015.11-.016.166-.005.044 0 .089.015.13.015.042.038.08.07.111.083.055.183.08.283.072h.264l-.032.165H2.458zM10.636 15.907L9.75 19.61c-.081.355-.181.706-.3 1.05-.07.202-.167.393-.29.569-.165.228-.384.412-.638.534-.263.128-.552.194-.844.192-.38 0-.675-.088-.885-.262-.106-.09-.189-.204-.244-.333-.055-.128-.08-.267-.072-.406-.007-.173.045-.343.147-.482.045-.06.103-.107.17-.14.066-.032.14-.047.214-.046.07-.002.142.012.206.042.064.03.121.075.165.13.097.13.146.29.139.453.007.154-.035.306-.12.435-.034.052-.08.095-.135.125-.055.03-.116.046-.178.046-.033 0-.062 0-.09-.008l-.084-.015c.039.091.108.166.196.212.096.056.206.085.318.084.388 0 .73-.647 1.023-1.941.053-.235.094-.42.127-.55l.12-.503c-.132.329-.323.63-.563.89-.082.087-.182.157-.292.206-.11.048-.23.074-.35.076-.138-.001-.274-.04-.393-.11-.118-.072-.216-.173-.282-.295-.187-.319-.277-.684-.26-1.053-.003-.393.063-.784.195-1.154.121-.347.31-.666.557-.939.162-.18.355-.33.569-.444.18-.098.381-.152.587-.156.099-.005.197.014.287.056.09.042.167.106.226.185.132.212.197.459.188.709l.214-.86 1.26-.001zm-2.261.826l-.573 2.375c-.019.07-.031.128-.04.173-.006.036-.01.073-.01.11-.003.054.013.107.044.151.014.02.032.034.053.044.021.01.045.015.068.013.067 0 .148-.052.241-.157.114-.133.212-.28.29-.436.186-.356.332-.73.438-1.117.097-.349.149-.708.153-1.07.006-.17-.02-.342-.077-.503-.05-.13-.12-.193-.199-.193-.046.002-.09.017-.128.043-.039.026-.07.061-.089.103-.08.145-.138.301-.171.464zM10.833 19.867l.768-3.24c.008-.034.014-.07.017-.105.005-.034.008-.068.008-.102.003-.047-.007-.095-.03-.137-.008-.015-.021-.027-.037-.035-.015-.008-.033-.012-.05-.01-.07 0-.168.123-.293.372-.148.31-.27.633-.362.964l-.11-.05c.179-.609.364-1.045.556-1.309.192-.263.419-.395.679-.395.097-.005.194.015.281.057.088.042.164.105.22.184.13.21.191.454.175.7 0 .087-.006.203-.018.347-.012.143-.03.323-.054.538.252-.78.453-1.279.603-1.5.055-.096.134-.177.23-.234.095-.058.204-.09.316-.093.081-.002.162.016.234.054.072.038.134.094.178.163.109.181.161.391.15.603.01.217-.04.434-.146.624-.039.07-.095.128-.164.168-.069.04-.147.061-.227.061-.074 0-.146-.018-.21-.053-.065-.036-.12-.088-.158-.15-.097-.169-.142-.363-.127-.556-.002-.1.01-.201.037-.298.027-.095.068-.185.12-.268-.127 0-.32.355-.58 1.063-.302.861-.543 1.742-.723 2.637h-1.283zM16.44 15.818c.227-.007.454.037.664.128.21.09.397.226.549.396.324.364.497.839.482 1.326.008.595-.212 1.17-.615 1.61-.178.215-.401.388-.654.506-.253.12-.53.18-.809.18-.227.008-.453-.035-.662-.126-.208-.09-.394-.227-.543-.398-.32-.376-.486-.858-.466-1.351-.012-.595.204-1.172.603-1.613.18-.209.402-.376.652-.49.25-.113.523-.17.798-.168zm.463.933c.026-.12.041-.198.049-.249.006-.04.01-.08.01-.12.006-.104-.026-.206-.09-.287-.03-.035-.066-.063-.108-.082-.042-.018-.087-.027-.133-.025-.055 0-.11.012-.158.038-.048.025-.09.062-.12.108-.092.141-.155.3-.185.466l-.563 2.44c0 .017-.01.04-.016.07-.027.098-.044.198-.05.3-.004.104.028.206.091.288.029.036.066.065.108.084.042.02.087.029.133.027.056 0 .111-.013.161-.04.05-.025.092-.063.124-.108.093-.143.157-.302.187-.47l.56-2.44zM18.837 19.372c.08.142.208.249.361.302.197.088.41.132.625.13.175.012.348-.045.482-.16.058-.06.103-.131.132-.21.029-.079.04-.162.035-.246 0-.253-.195-.49-.584-.715-.13-.077-.233-.138-.309-.185-.243-.131-.457-.308-.631-.522-.117-.17-.178-.373-.173-.579-.005-.187.032-.373.109-.544.076-.17.19-.322.334-.442.327-.267.741-.403 1.163-.383.356-.015.708.09.998.298.12.082.217.193.285.322.068.129.103.272.103.418.007.134-.036.265-.12.37-.04.044-.09.08-.146.102-.056.024-.116.034-.176.03-.076.003-.152-.01-.223-.037-.072-.027-.136-.069-.19-.122-.054-.053-.096-.117-.124-.188-.028-.07-.04-.146-.037-.222-.007-.129.03-.256.105-.361.034-.043.077-.078.127-.1.05-.023.104-.034.158-.032.029 0 .058.003.086.006l.106.015c-.08-.111-.193-.196-.323-.241-.159-.064-.328-.095-.499-.093-.085-.006-.17.006-.25.033-.08.028-.154.07-.218.127-.056.059-.1.129-.129.205-.028.077-.04.158-.036.24 0 .258.201.509.603.752.071.045.126.077.164.099.249.14.468.327.647.55.124.184.186.402.18.624.005.185-.032.368-.107.537-.074.169-.186.319-.326.44-.32.263-.725.399-1.14.38-.372.015-.74-.098-1.04-.32-.126-.09-.23-.208-.3-.346-.072-.138-.109-.291-.108-.446-.01-.152.036-.301.129-.42.045-.051.101-.09.164-.116.062-.026.13-.038.198-.034.075-.004.151.008.223.035.07.027.136.068.19.121.052.056.093.12.12.192.026.071.038.147.034.223.007.148-.035.294-.12.415-.038.048-.087.087-.142.113-.056.026-.117.038-.179.035-.071-.004-.141-.017-.21-.038l-.021-.012zM24.11 15.818c.228-.005.453.039.661.13.208.09.394.225.545.394.324.364.497.839.482 1.326.008.595-.212 1.17-.614 1.61-.179.215-.403.388-.656.507-.253.118-.53.18-.809.18-.227.007-.453-.037-.662-.127-.208-.09-.394-.227-.543-.398-.32-.376-.485-.859-.465-1.351-.012-.595.203-1.172.603-1.613.18-.21.404-.377.656-.491.252-.114.526-.17.803-.167zm.465.933c.025-.12.04-.198.048-.249.006-.04.01-.08.01-.12.007-.104-.026-.205-.09-.287-.029-.035-.066-.063-.108-.081-.041-.019-.087-.028-.133-.026-.054 0-.108.013-.157.038s-.09.062-.121.108c-.09.142-.153.3-.183.466l-.563 2.44c0 .017-.01.04-.016.07-.027.098-.044.198-.05.3-.005.104.027.206.09.288.029.036.066.065.107.084.042.02.088.029.134.027.056 0 .11-.013.16-.04.05-.025.092-.063.123-.108.094-.142.158-.302.188-.47l.56-2.44zM28.026 16.148c-.2 1.206-.397 2.274-.587 3.204-.19.93-.387 1.799-.59 2.604h-1.624l.047-.165c.053-.006.105-.024.15-.054.044-.03.08-.07.106-.118.122-.265.215-.543.275-.829l1.206-4.642h-.697l.05-.241h.703c.2-.655.445-1.151.733-1.489.289-.337.614-.508.975-.51.108-.003.215.017.314.058.1.042.189.104.262.182.077.08.137.175.176.279.04.103.058.213.055.324.007.16-.04.317-.132.447-.036.055-.085.1-.143.131-.059.031-.123.048-.19.048-.065 0-.13-.014-.189-.042-.06-.03-.11-.071-.15-.124-.092-.122-.139-.272-.132-.425-.004-.155.038-.307.12-.438.031-.052.074-.095.126-.126.052-.03.111-.046.171-.047h.012c-.04-.03-.086-.055-.133-.074-.044-.016-.09-.024-.138-.024-.157 0-.284.104-.38.31-.097.206-.215.715-.354 1.525h.775l-.059.24-.758-.004z"/>
        <path d="M29.577 16.148h-.61l.054-.241h.603l.461-1.936h1.233l-.458 1.936h.632l-.057.241h-.628l-.67 2.875c-.02.084-.031.146-.036.183-.005.034-.008.07-.007.104-.004.063.011.127.043.182.012.021.03.038.051.05.021.012.045.018.07.017.105 0 .225-.12.361-.361.172-.33.311-.675.417-1.03l.096.052c-.178.62-.376 1.067-.594 1.34-.09.126-.21.228-.349.3-.138.07-.292.108-.447.108-.108.007-.215-.01-.315-.051-.1-.04-.19-.102-.263-.182-.147-.186-.22-.42-.205-.658.002-.128.014-.257.037-.383.024-.147.066-.345.12-.592l.46-1.954zM32.69 10.521h.332c.114.012.228-.013.327-.07.028-.023.05-.052.066-.084.016-.033.023-.069.022-.105 0-.048-.015-.095-.043-.135-.03-.04-.072-.071-.12-.088-.09-.024-.183-.034-.276-.029h-.314l.005.511zm-.274.957V9.782H33c.146-.006.293.01.434.047.087.03.162.087.214.163.05.073.078.16.08.248 0 .06-.012.12-.035.175-.023.056-.056.106-.099.148-.093.095-.22.15-.353.155.054.02.103.052.146.09.096.103.18.216.252.338l.207.332h-.333l-.152-.268c-.072-.148-.17-.282-.288-.396-.065-.044-.143-.064-.221-.059h-.162v.723h-.274zm.694-2.186c-.227.001-.45.06-.647.17-.207.111-.378.279-.492.483-.116.2-.177.428-.177.66 0 .229.06.454.174.653.113.203.28.37.482.482.2.114.425.173.654.173.23 0 .455-.06.654-.173.203-.112.37-.28.483-.482.113-.2.173-.424.173-.654 0-.23-.062-.458-.176-.659-.114-.205-.285-.372-.492-.482-.194-.109-.413-.168-.636-.171zm0-.262c.271.002.538.072.775.204.249.133.454.336.59.583.136.241.209.514.21.791 0 .275-.072.545-.208.784-.134.246-.336.45-.582.584-.24.136-.51.208-.784.208-.275 0-.545-.072-.783-.208-.247-.135-.45-.338-.584-.585-.136-.238-.208-.508-.208-.783 0-.277.073-.55.21-.79.137-.248.342-.45.591-.584.237-.132.502-.202.773-.204z"/>
    </g>
    <defs>
        <clipPath id="clip0">
            <path fill="#fff" d="M0 0H35V35H0z"/>
        </clipPath>
    </defs>
</svg>
