<svg xmlns="http://www.w3.org/2000/svg" fill="none" viewBox="0 0 35 35">
    <path fill="#F19021" d="M18.81 13.637c-3.787.23-2.086 5.17 2.104 4.91 4.094-.25 1.932-5.16-2.104-4.91z"/>
    <path fill="#F19021" d="M17.205 10.59C10.459 10.59 5 16.058 5 22.795 5 29.541 10.468 35 17.205 35c6.746 0 12.205-5.468 12.205-12.205.01-6.737-5.459-12.205-12.205-12.205zm0 23.132c-6.035 0-10.927-4.892-10.927-10.927 0-6.035 4.892-10.927 10.927-10.927 6.035 0 10.927 4.892 10.927 10.927 0 6.035-4.892 10.927-10.927 10.927z"/>
    <path fill="#F68B2A" d="M16.84 2.076c-2.903 2.19-2.393 5.545-2.393 5.545S12.62 2.893 10.257 0c-.317 3.72.845 8.65.845 8.65S9.622 5.592 5.99 5.42c3.008 1.73 4.18 4.844 4.44 5.68 1.74-1.077 3.777-1.72 5.948-1.797-.22-.77-1.066-4.056.462-7.227z"/>
    <path fill="#fff" d="M8.93 23.996v2.557H7.865V19.97h2.239c.76 0 1.326.182 1.71.538.385.365.577.855.577 1.48s-.192 1.115-.586 1.47c-.394.356-.961.538-1.701.538H8.931zm2.384-2.008c0-.375-.106-.654-.308-.855-.211-.193-.538-.298-1-.298H8.94v2.287h1.067c.865.01 1.307-.375 1.307-1.134zM14.216 25.717h2.278v.826h-3.335V19.96h1.067v5.757h-.01zM21.356 25.12H18.58l-.5 1.423h-1.143l2.422-6.477h1.23L23 26.543h-1.134l-.51-1.422zm-.298-.816l-1.085-3.075-1.086 3.075h2.171zM27.267 19.97l-2.191 4.18v2.403h-1.077V24.15l-2.2-4.19h1.23l1.508 3.047 1.51-3.047h1.22v.01z"/>
</svg>