<svg width="256" height="256" viewBox="0 0 256 256" fill="none" xmlns="http://www.w3.org/2000/svg">
<path d="M127.7 0.600098C144.635 0.600098 161.57 3.80404 177.132 10.6696C192.694 17.0775 205.968 26.2316 217.868 38.132C229.768 50.0323 238.922 63.7635 245.33 78.8678C252.196 94.4298 255.4 111.365 255.4 128.3C255.4 145.235 252.196 162.17 245.33 177.732C238.922 193.294 229.768 206.568 217.868 218.468C205.968 230.368 192.236 239.523 177.132 245.93C161.57 252.796 144.635 256 127.7 256C110.765 256 93.8297 252.796 78.2677 245.93C62.7057 239.523 49.4322 230.368 37.5319 218.468C25.6315 206.568 16.4774 192.837 10.0695 177.732C3.20394 162.17 0 145.235 0 128.3C0 111.365 3.20394 94.4298 10.0695 78.8678C16.4774 63.3058 25.6315 50.0323 37.5319 38.132C49.4322 26.2316 63.1634 17.0775 78.2677 10.6696C93.8297 3.80404 110.765 0.600098 127.7 0.600098ZM219.241 75.6639L131.362 126.012V228.08L219.699 177.275H219.241V75.6639ZM35.2434 75.2062V177.275L123.581 228.08V126.469L35.2434 75.2062ZM158.456 176.222L158.952 176.244L159.434 176.308L159.474 176.313L159.533 176.327L159.901 176.414C160.054 176.456 160.204 176.505 160.352 176.56L160.357 176.561L160.421 176.588L160.495 176.62L160.785 176.747L160.801 176.753L160.989 176.858L161.012 176.872L161.199 176.974L161.199 176.977L161.222 176.991L161.36 177.082L161.502 177.178L161.593 177.241L161.611 177.256L161.616 177.261L161.634 177.275L161.767 177.384L161.781 177.394L161.881 177.476L161.886 177.481L161.936 177.522C162.086 177.656 162.203 177.771 162.316 177.893L162.49 178.098L162.554 178.172L162.642 178.277L162.843 178.561L162.865 178.593L162.934 178.693L162.943 178.699L163.085 178.941L163.204 179.133L163.218 179.158L163.282 179.288L163.419 179.563L163.438 179.595L163.465 179.655L163.488 179.714L163.543 179.842L163.547 179.861L163.639 180.08V180.089L163.684 180.188L163.708 180.273L163.712 180.277L163.731 180.346L163.758 180.424L163.795 180.529L163.813 180.593L163.822 180.611L163.872 180.758L163.937 181.009L164.028 181.364L164.097 181.714L164.153 182.006L164.211 182.451L164.243 182.683L164.28 183.22L164.298 183.394L164.307 184.017L164.316 184.14L164.294 184.836L164.291 185.081L164.243 185.678L164.216 186.031L164.147 186.543L164.094 186.985L164.014 187.417L163.924 187.94L163.84 188.31L163.71 188.893L163.621 189.212L163.453 189.841L163.36 190.118L163.154 190.78L163.058 191.033L162.814 191.707L162.714 191.944L162.436 192.618L162.321 192.859L162.021 193.511L161.886 193.766L161.57 194.381L161.401 194.667L161.085 195.226L160.971 195.409L160.568 196.042L160.508 196.123L160.037 196.8L160.02 196.826L159.543 197.441L159.442 197.574L159.039 198.045L158.836 198.283L158.517 198.617L158.204 198.95L157.991 199.148L157.548 199.571L157.455 199.647L156.911 200.105L156.868 200.144L156.343 200.531L156.166 200.664L155.78 200.91L155.445 201.128L155.199 201.258L154.705 201.533L154.636 201.565L154.147 201.816L154.105 201.83L153.595 202.053L153.565 202.059L153.049 202.247L153.029 202.247L152.51 202.396C152.154 202.481 151.804 202.538 151.461 202.565L150.953 202.585L150.457 202.563C149.968 202.52 149.499 202.414 149.057 202.247L149.047 202.242L148.624 202.06L148.603 202.05L148.21 201.833L148.182 201.812L147.816 201.566L147.775 201.533L147.443 201.26C147.323 201.151 147.206 201.036 147.093 200.915L146.878 200.663L146.767 200.531L146.489 200.142L146.466 200.109C146.37 199.962 146.278 199.809 146.191 199.649L146.15 199.569L145.944 199.153L145.857 198.947L145.726 198.619L145.615 198.283L145.537 198.049L145.413 197.574L145.381 197.443L145.258 196.823C145.221 196.582 145.191 196.356 145.166 196.125L145.161 196.041L145.111 195.413L145.106 195.226L145.093 194.667L145.079 194.379L145.061 193.767L145.065 193.509L145.085 192.86L145.106 192.617L145.161 191.947L145.193 191.706L145.289 191.034L145.335 190.777L145.466 190.121L145.532 189.839L145.689 189.213L145.784 188.891L145.958 188.312L146.086 187.939L146.269 187.421L146.443 186.983L146.621 186.544L146.85 186.03L147.012 185.682L147.313 185.078L147.44 184.84L147.83 184.14L147.903 184.019L148.288 183.394L148.398 183.223L148.768 182.68L148.924 182.455L149.262 182.003L149.479 181.717L149.771 181.362L150.06 181.013L150.288 180.758L150.42 180.611L150.439 180.593L150.498 180.529L150.594 180.424L150.666 180.346L150.929 180.08L151.144 179.861L151.295 179.718L151.359 179.655L151.423 179.595L151.459 179.563L151.766 179.288L151.913 179.156L151.944 179.133L152.178 178.941L152.48 178.698L152.485 178.693L152.611 178.593L152.654 178.561L153.052 178.272L153.194 178.172L153.295 178.101L153.62 177.892L153.963 177.677L153.994 177.661L154.1 177.6L154.201 177.545L154.242 177.522L154.32 177.481L154.329 177.476L154.48 177.394L154.499 177.384L154.705 177.275L154.773 177.238L154.888 177.178L155.08 177.082L155.262 176.992L155.29 176.977L155.3 176.972L155.538 176.872L155.565 176.858L155.814 176.754L155.84 176.744L156.11 176.648L156.188 176.62L156.279 176.588L156.36 176.561L156.375 176.556L156.899 176.411L157.314 176.327L157.428 176.305L157.725 176.268L157.948 176.242L158.456 176.222ZM200.108 154.252L200.603 154.274L201.085 154.338C201.402 154.395 201.708 154.479 202.003 154.59L202.008 154.591L202.041 154.604L202.178 154.664L202.436 154.777L202.452 154.783L202.517 154.82L202.85 155.005L202.874 155.021L203.061 155.149L203.244 155.271L203.285 155.305L203.491 155.474L203.617 155.578C203.738 155.686 203.854 155.802 203.967 155.923L204.155 156.142L204.16 156.147L204.178 156.17L204.293 156.307L204.306 156.321L204.425 156.49L204.434 156.504L204.562 156.692L204.595 156.729L204.663 156.847L204.837 157.136L204.869 157.188L204.883 157.218L204.906 157.264L204.947 157.341L204.965 157.383L205.116 157.685L205.185 157.854L205.199 157.886L205.203 157.895L205.335 158.219L205.331 158.22L205.437 158.536V158.541L205.441 158.55L205.45 158.577L205.478 158.669L205.523 158.789L205.588 159.053L205.611 159.131V159.14L205.629 159.195L205.643 159.259L205.675 159.378L205.68 159.395L205.716 159.575L205.739 159.712L205.762 159.818L205.766 159.836L205.798 160.01L205.804 160.036L205.803 160.042L205.807 160.06L205.83 160.243L205.849 160.404L205.872 160.573V160.577L205.885 160.664L205.894 160.713L205.894 160.742V160.793L205.913 161.012L205.926 161.2L205.931 161.237L205.936 161.278L205.949 161.424L205.945 161.475L205.949 161.58V161.626L205.954 161.758L205.958 161.928V162.005L205.968 162.17L205.963 162.221L205.958 162.353V162.399L205.954 162.454V162.628L205.949 162.66V162.806L205.945 162.907V162.967L205.94 163.086L205.942 163.112L205.936 163.145V163.177L205.922 163.324V163.342L205.913 163.452V163.488L205.908 163.511L205.904 163.585V163.594L205.899 163.658L205.894 163.676L205.89 163.772L205.885 163.804L205.876 163.955L205.867 164.042L205.868 164.061L205.849 164.216L205.839 164.267L205.817 164.441V164.445L205.803 164.569L205.798 164.573V164.578L205.789 164.66V164.665L205.785 164.706L205.753 164.958L205.745 165.015L205.725 165.127L205.647 165.557L205.574 165.96L205.576 165.97L205.556 166.056L205.446 166.528L205.362 166.923L205.345 166.967L205.341 166.994L205.208 167.48L205.104 167.871L205.08 167.942L205.071 167.965L204.929 168.409L204.805 168.81L204.768 168.894L204.746 168.963L204.613 169.32L204.466 169.737L204.416 169.851L204.375 169.951L204.27 170.198L204.087 170.648L204.077 170.67L204.013 170.803L203.899 171.05L203.757 171.356L203.672 171.541L203.56 171.755L203.496 171.869L203.423 172.011L203.221 172.411L203.089 172.633L203.08 172.652L203.052 172.698L202.759 173.219L202.737 173.256L202.649 173.393L202.622 173.439L202.407 173.773L202.219 174.072L202.201 174.094L202.16 174.153L202.063 174.29L201.748 174.743L201.729 174.771L201.688 174.83L201.671 174.856L201.391 175.215L201.29 175.348L201.194 175.471L201.093 175.604L201.079 175.622L200.837 175.901L200.759 175.993L200.69 176.075L200.562 176.222L200.548 176.24L200.526 176.268L200.493 176.304L200.471 176.327L200.393 176.41L200.255 176.556L200.191 176.62L200.169 176.648L200.077 176.744L200.068 176.753L199.967 176.858L199.953 176.872L199.857 176.972L199.839 176.991L199.743 177.082L199.642 177.178L199.578 177.238L199.541 177.275L199.422 177.384L199.413 177.394L199.326 177.476L199.258 177.545L199.199 177.602L199.13 177.659L199.107 177.677L198.85 177.892L198.603 178.098L198.562 178.135L198.519 178.174L198.379 178.272L197.994 178.561L197.953 178.593L197.818 178.694L197.807 178.698L197.431 178.941L197.129 179.133L197.096 179.158L196.85 179.288L196.356 179.563L196.168 179.655L196.054 179.714L195.799 179.846L195.756 179.861L195.246 180.084L195.216 180.089L194.946 180.186L194.7 180.277L194.681 180.277L194.438 180.346L194.162 180.426C193.805 180.512 193.455 180.568 193.112 180.595L192.604 180.615L192.108 180.593C191.782 180.565 191.465 180.508 191.159 180.424L190.918 180.346L190.709 180.278L190.699 180.273L190.497 180.186L190.276 180.091L190.255 180.08L189.862 179.863L189.834 179.842L189.646 179.714L189.554 179.655L189.467 179.596L189.426 179.563L189.095 179.29C188.974 179.181 188.857 179.066 188.745 178.945L188.534 178.698L188.529 178.693L188.442 178.593L188.418 178.561L188.209 178.272L188.14 178.172L188.117 178.139L188.09 178.098L187.966 177.892L187.842 177.68L187.829 177.659L187.801 177.6L187.774 177.545L187.76 177.522L187.742 177.481L187.737 177.476L187.637 177.275L187.632 177.261L187.627 177.256L187.618 177.238L187.595 177.183L187.55 177.082L187.513 176.991L187.508 176.977V176.972L187.467 176.872L187.463 176.858L187.417 176.753V176.744L187.377 176.649L187.366 176.62L187.357 176.588L187.348 176.561L187.344 176.556L187.298 176.41L187.266 176.313L187.261 176.304L187.252 176.268L187.243 176.24L187.234 176.222L187.189 176.079L187.165 175.993L187.142 175.901L187.069 175.622L187.064 175.604L187.032 175.473L187.005 175.348L186.977 175.215L186.909 174.853L186.908 174.832L186.895 174.771V174.743L186.836 174.29L186.818 174.155L186.813 174.094V174.071L186.79 173.773L186.763 173.443L186.762 173.393L186.758 173.256V173.219L186.744 172.698L186.739 172.633L186.749 172.409L186.762 172.011L186.767 171.869L186.772 171.756L186.79 171.54L186.808 171.356L186.831 171.05L186.854 170.807L186.872 170.67L186.877 170.647L186.936 170.198L186.973 169.951L186.989 169.853L187.009 169.736L187.087 169.32L187.156 168.963L187.173 168.898L187.193 168.807L187.289 168.409L187.399 167.965L187.405 167.944L187.426 167.869L187.536 167.48L187.682 166.997L187.687 166.967L187.701 166.921L187.838 166.528L188.001 166.058L188.03 165.969L188.035 165.96L188.19 165.557L188.362 165.131L188.41 165.013L188.433 164.958L188.543 164.706L188.561 164.665L188.566 164.66L188.598 164.578L188.602 164.573V164.569L188.657 164.445L188.662 164.441L188.735 164.267L188.76 164.219L188.836 164.061V164.056L188.845 164.042L188.886 163.955L188.959 163.804L188.973 163.772L189.019 163.676L189.101 163.511L189.11 163.488L189.184 163.342L189.188 163.337L189.194 163.327L189.271 163.177L189.284 163.154L189.307 163.109L189.321 163.086L189.385 162.967L189.408 162.925L189.417 162.907L189.472 162.806L189.55 162.66L189.568 162.628L189.591 162.582L189.618 162.532L189.662 162.456L189.692 162.399L189.719 162.353L189.797 162.221L189.829 162.17L189.925 162.005L189.939 161.983L189.953 161.955L189.971 161.928L190.072 161.758L190.149 161.626L190.161 161.611L190.177 161.58L190.245 161.475L190.277 161.424L190.374 161.278L190.397 161.237L190.424 161.2L190.543 161.012L190.58 160.957L190.689 160.795L190.721 160.742L190.744 160.71L190.776 160.664L190.836 160.577L190.84 160.573L190.959 160.404L191.074 160.243L191.202 160.06L191.216 160.042L191.22 160.033L191.243 160.012L191.371 159.836L191.39 159.818L191.468 159.712L191.577 159.575L191.719 159.392L191.728 159.378L191.822 159.264L191.875 159.195L191.921 159.14L191.93 159.131L191.994 159.053L192.218 158.788L192.319 158.669L192.397 158.577L192.422 158.554L192.433 158.536L192.717 158.234L192.731 158.22V158.216L193.01 157.918L193.074 157.854L193.248 157.685L193.34 157.593L193.555 157.383L193.6 157.341L193.68 157.266L193.729 157.218L193.765 157.186L193.825 157.136L194.15 156.847L194.287 156.728L194.332 156.694L194.571 156.504L194.585 156.49L194.804 156.321L194.827 156.302L194.997 156.174L195.028 156.147L195.038 156.142L195.358 155.923L195.591 155.762L195.672 155.71L195.733 155.671L195.861 155.593L195.894 155.575L196.063 155.474L196.356 155.305L196.424 155.268L196.658 155.149L196.913 155.022L196.951 155.003L197.216 154.888L197.326 154.842L197.377 154.82L197.465 154.784L197.491 154.774L197.802 154.664L197.972 154.604L198.011 154.591L198.026 154.586L198.55 154.441C198.906 154.356 199.257 154.3 199.599 154.272L200.108 154.252ZM50.9333 150.218L51.2631 150.233L51.4352 150.243L51.6567 150.27L51.8443 150.293L51.9543 150.311L52.2105 150.361L52.3844 150.398L52.4897 150.422L52.9245 150.545L53.0407 150.578L53.3777 150.696L53.5882 150.769L53.6062 150.777L53.9773 150.934L54.0322 150.956L54.0413 150.961L54.11 150.989L54.1512 151.007L54.1856 151.021L54.4258 151.14L54.6043 151.227L54.6318 151.24L54.7779 151.31L55.03 151.451L55.1948 151.542L55.3458 151.625L55.3549 151.629L55.3824 151.643L55.5335 151.753L55.538 151.757L55.5472 151.762L55.6616 151.844L55.6708 151.849L55.7028 151.872L55.7257 151.89L55.7348 151.895L55.8264 151.959L56.0827 152.142L56.1604 152.194L56.2704 152.284L56.8196 152.719L56.8516 152.742L56.9236 152.797L56.9249 152.801L57.0576 152.915L57.3185 153.144L57.3734 153.19L57.6696 153.45L57.9318 153.703L57.941 153.712L58.1058 153.867L58.396 154.149L58.3987 154.151L58.4948 154.252L58.5131 154.27L58.5726 154.334L58.6733 154.44L58.8106 154.586L58.8289 154.604L58.8839 154.664L58.9891 154.774L59.0349 154.82L59.0532 154.842L59.1005 154.891L59.1997 155.003L59.2134 155.021L59.3233 155.149L59.4285 155.268L59.4606 155.305L59.607 155.474L59.694 155.575L59.7077 155.593L59.7807 155.673L59.8039 155.707L59.8496 155.762L59.9778 155.923L60.1517 156.142L60.1563 156.147L60.1746 156.17L60.2799 156.302L60.2936 156.321L60.4341 156.491L60.4401 156.504L60.5774 156.692L60.6048 156.728L60.6918 156.847L60.9069 157.136L60.9435 157.186L60.9664 157.218L60.9985 157.264L61.0585 157.343L61.0854 157.383L61.2273 157.593L61.2868 157.685L61.4012 157.854L61.4241 157.886L61.4287 157.895L61.447 157.918L61.6438 158.216L61.6515 158.224L61.6576 158.234L61.8406 158.536L61.8452 158.541L61.8498 158.55L61.8681 158.577L61.923 158.669L61.9963 158.788L62.161 159.053L62.2107 159.133L62.2114 159.14L62.2434 159.195L62.28 159.259L62.3487 159.378L62.3533 159.392L62.4585 159.575L62.5364 159.712L62.5959 159.818L62.605 159.836L62.7057 160.01L62.7194 160.033L62.8247 160.243L62.9071 160.404L62.9941 160.573V160.577L63.0398 160.664L63.0627 160.71L63.0764 160.742L63.1039 160.793L63.2181 161.016L63.3007 161.2L63.3145 161.237L63.3373 161.278L63.4014 161.424L63.4243 161.475L63.4747 161.58L63.4838 161.607L63.493 161.626L63.557 161.758L63.6348 161.928L63.644 161.955L63.6616 161.985L63.6669 162.005L63.7355 162.17L63.7539 162.221L63.8088 162.353L63.8271 162.399L63.85 162.454L63.882 162.532L63.9049 162.582L63.9232 162.628L63.9369 162.66L63.9964 162.806L64.0376 162.907L64.0422 162.925L64.0619 162.967L64.1017 163.086L64.1109 163.109L64.1246 163.145L64.1292 163.154L64.1337 163.177L64.1887 163.324L64.1932 163.337V163.342L64.2482 163.488L64.2527 163.511L64.2802 163.585L64.2848 163.594L64.3077 163.658L64.3123 163.676L64.3489 163.772L64.358 163.804L64.4164 163.96L64.4404 164.042L64.445 164.056V164.061L64.4908 164.216L64.5091 164.267L64.5594 164.441L64.564 164.445L64.6006 164.569V164.573L64.6052 164.578L64.6281 164.66V164.665L64.6418 164.706L64.723 164.96L64.7333 165.013L64.7608 165.127L64.8707 165.557L64.9791 165.963L64.9759 165.969L64.9942 166.056L65.0904 166.528L65.1727 166.921L65.1824 166.968L65.1865 166.994L65.2551 167.48L65.3146 167.869L65.3238 167.942L65.3306 167.969L65.3696 168.409L65.4062 168.807L65.4153 168.894L65.4212 168.965L65.4291 169.32L65.4428 169.736V169.851L65.4519 169.951L65.4428 170.198L65.4336 170.647L65.4363 170.671L65.4245 170.803L65.4062 171.05L65.3899 171.359L65.365 171.54L65.3421 171.755L65.3284 171.869L65.3135 172.013L65.2414 172.409L65.2077 172.635L65.2002 172.652L65.191 172.698L65.0735 173.222L65.0629 173.256L65.008 173.439L64.9115 173.775L64.7974 174.071L64.7928 174.094L64.77 174.153L64.7225 174.292L64.5182 174.743L64.5072 174.774L64.4724 174.83L64.4587 174.853L64.2663 175.219L64.1749 175.348L64.0971 175.471L64.0102 175.604L64.0008 175.627L63.7813 175.901L63.7111 175.997L63.6303 176.075L63.493 176.222L63.4792 176.24L63.4518 176.268L63.4197 176.304L63.3983 176.328L63.3007 176.41L63.1359 176.556L63.1314 176.561L63.0993 176.588L63.0629 176.621L63.0215 176.648L62.8842 176.744L62.8705 176.753L62.7194 176.858L62.7057 176.874L62.5226 176.972L62.5135 176.977L62.4906 176.991L62.3275 177.087L62.1061 177.178L61.9688 177.238L61.9291 177.259L61.9139 177.261L61.8681 177.275L61.5111 177.389L61.4653 177.394L61.0744 177.477L61.0259 177.481L60.6196 177.522C60.3106 177.538 59.9901 177.525 59.6591 177.482L59.6299 177.476L59.1548 177.395L59.1173 177.384L58.687 177.275L58.6355 177.263L58.385 177.178L58.102 177.085L57.8769 176.991L57.8449 176.977L57.8311 176.972L57.584 176.872L57.5549 176.861L57.3322 176.753L57.3139 176.744L57.1171 176.648L57.0576 176.62L56.9951 176.589L56.9432 176.561L56.934 176.556L56.6731 176.41L56.5267 176.327L56.5038 176.313L56.4855 176.304L56.4232 176.269L56.3756 176.24L56.3482 176.222L56.1147 176.075L55.982 175.993L55.8401 175.901L55.4465 175.622L55.419 175.604L55.2359 175.471L55.0621 175.351L54.8927 175.215L54.435 174.853L54.4075 174.83L54.3343 174.771L54.2989 174.748L53.7759 174.29L53.6202 174.153L53.5529 174.095L53.5287 174.071L53.2175 173.773L52.8696 173.439L52.8265 173.396L52.6911 173.256L52.6591 173.219L52.1647 172.698L52.122 172.653L52.1052 172.633L51.9084 172.409L51.5651 172.011L51.4419 171.872L51.35 171.755L51.1761 171.54L51.0342 171.356L50.7884 171.053L50.604 170.803L50.5078 170.67L50.4895 170.647L50.164 170.202L49.9952 169.951L49.9266 169.851L49.8487 169.736L49.571 169.32L49.3498 168.963L49.3087 168.894L49.2537 168.807L49.0118 168.412L48.7594 167.965L48.7457 167.942L48.7045 167.869L48.4888 167.48L48.2376 166.994L48.0044 166.529L47.7891 166.056L47.7479 165.969L47.7433 165.96L47.5609 165.56L47.3863 165.127L47.3359 165.013L47.3131 164.958L47.2124 164.706L47.1941 164.665V164.66L47.1574 164.578V164.569L47.1117 164.445V164.441L47.0476 164.267L47.0293 164.216L46.9744 164.061V164.056L46.9698 164.042L46.9377 163.955L46.8828 163.804L46.8737 163.772L46.837 163.676L46.8325 163.658L46.8096 163.594L46.8061 163.585L46.7821 163.511L46.7775 163.488L46.7638 163.452L46.7318 163.342L46.7272 163.337V163.324L46.6814 163.177L46.6723 163.154V163.145L46.6585 163.109L46.654 163.086L46.6173 162.967L46.6036 162.925L46.599 162.907L46.567 162.806L46.5212 162.66L46.5121 162.628L46.4996 162.585L46.4846 162.532L46.4663 162.454L46.4526 162.399L46.4388 162.353L46.4068 162.221L46.3931 162.17L46.3519 162.005L46.3473 161.983L46.329 161.928L46.2878 161.758L46.2558 161.626L46.2512 161.607L46.2435 161.581L46.2191 161.475L46.21 161.424L46.1779 161.278L46.1734 161.237L46.1642 161.2L46.1276 161.012L46.1139 160.957L46.0818 160.793L46.0727 160.742L46.0635 160.71L46.0544 160.664L46.0361 160.577L46.0401 160.577L46.0132 160.404L45.9857 160.243L45.9628 160.06L45.9582 160.042V160.033L45.9537 160.01L45.9262 159.836V159.818L45.9079 159.712L45.892 159.575L45.8713 159.392V159.378L45.8621 159.259L45.853 159.195L45.8484 159.14V159.131L45.8438 159.053L45.8164 158.788L45.8072 158.669L45.8013 158.58L45.798 158.536L45.7889 158.234L45.7843 158.22V158.216L45.7752 157.918V157.854L45.7706 157.685V157.593V157.383V157.341L45.7752 157.264V157.136L45.7874 156.849L45.7935 156.728V156.692L45.8072 156.504L45.8118 156.49L45.8209 156.321L45.8255 156.302L45.8347 156.17L45.8373 156.143L45.8621 155.923L45.8804 155.762L45.8896 155.707L45.8942 155.671L45.9033 155.593V155.575L45.9194 155.475L45.9491 155.305L45.9537 155.268L45.9766 155.149L45.9994 155.021L46.004 155.003L46.0223 154.888L46.0361 154.82L46.0452 154.783L46.0498 154.774L46.0727 154.664L46.0864 154.604L46.091 154.591V154.586L46.1276 154.44L46.1551 154.334L46.1688 154.27L46.1769 154.256L46.2054 154.151V154.147L46.2969 153.867L46.3427 153.712L46.3507 153.704L46.4526 153.446L46.5534 153.192L46.5761 153.144L46.7409 152.801L46.7455 152.796L46.773 152.742C46.8656 152.569 46.9516 152.425 47.042 152.287L47.1071 152.192L47.1437 152.142L47.2764 151.959L47.3263 151.895L47.3268 151.89L47.3405 151.872L47.368 151.844L47.4412 151.762V151.757L47.4458 151.753L47.5465 151.643L47.5556 151.629L47.5602 151.625L47.6361 151.543L47.7296 151.451L47.8852 151.309L47.9584 151.24L47.9722 151.227L48.0866 151.14L48.2468 151.021L48.2651 151.007L48.288 150.989L48.329 150.962L48.3337 150.956L48.3704 150.934L48.6404 150.773L48.6496 150.769L48.7103 150.733L48.7869 150.696L49.0432 150.577L49.1139 150.546L49.4688 150.421L49.5388 150.4L49.6931 150.361L49.922 150.307L49.9843 150.297L50.16 150.27L50.3751 150.242L50.4494 150.236L50.9333 150.218ZM72.4455 137.402L72.7752 137.418L72.9474 137.427L73.3565 137.477L73.4665 137.495L73.5305 137.504L73.8966 137.582L74.0019 137.607L74.1621 137.651L74.1804 137.656L74.4367 137.729L74.5528 137.762L74.7754 137.839L74.7983 137.848L74.9951 137.916L75.1004 137.953L75.1184 137.961L75.3704 138.067L75.4162 138.086L75.5535 138.145L75.6978 138.205L75.938 138.324L75.9563 138.333L76.0341 138.37L76.1256 138.415L76.2901 138.494L76.4506 138.585L76.5513 138.64L76.7069 138.727L76.7893 138.772L76.8946 138.827L77.0502 138.942L77.1189 138.987L77.247 139.079L77.4667 139.235L77.5949 139.326L77.6544 139.367L77.6726 139.378L77.7688 139.454L77.7825 139.468L78.1304 139.743L78.1487 139.756L78.3318 139.903L78.3638 139.926L78.4358 139.981L78.7437 140.251L78.7986 140.301L78.8307 140.329L78.8856 140.374L79.0092 140.484L79.1818 140.634L79.3021 140.75L79.444 140.887L79.4532 140.896L79.5127 140.951L79.682 141.116L79.8559 141.281L79.9109 141.335L80.007 141.436L80.1763 141.615L80.396 141.848L80.4464 141.898L80.5654 142.027L80.6127 142.075L80.8309 142.324L80.8354 142.333L80.9453 142.457L80.9956 142.516L81.1101 142.649L81.1192 142.658L81.2199 142.777L81.2928 142.857L81.4625 143.075L81.6639 143.327L81.6685 143.331L81.6913 143.359L81.9463 143.676L81.9522 143.688L81.9568 143.693L82.0758 143.857L82.1994 144.022L82.204 144.031L82.3459 144.224L82.4191 144.32L82.5427 144.489L82.5707 144.527L82.5976 144.567L82.6479 144.645L82.6663 144.672L82.7029 144.723L82.9134 145.038L83.0095 145.18L83.0324 145.217L83.0462 145.235L83.1637 145.409L83.1697 145.418L83.2292 145.519L83.2842 145.606L83.3574 145.725L83.3665 145.739L83.3803 145.762L83.5176 145.986L83.632 146.173L83.6503 146.201L83.6732 146.238L83.7229 146.317L83.7281 146.334L83.7556 146.379L83.7602 146.389L83.8838 146.608L83.9021 146.64L83.9707 146.759L84.044 146.887L84.0531 146.906L84.108 147.002L84.1172 147.02L84.1767 147.125L84.1813 147.135L84.2459 147.248L84.282 147.318L84.2865 147.322L84.3598 147.469L84.4101 147.574L84.4193 147.588L84.4422 147.638L84.4513 147.656L84.5062 147.757V147.762L84.6664 148.078L84.6985 148.142L84.7214 148.192L84.7303 148.2L84.8495 148.462L84.9365 148.659L84.9868 148.764L85.1104 149.034L85.147 149.112V149.121L85.1738 149.169L85.3393 149.583L85.3942 149.716L85.4171 149.766L85.504 149.986L85.5086 149.991L85.574 150.151L85.5956 150.215L85.6002 150.233L85.6047 150.242L85.6139 150.27L85.623 150.293L85.6459 150.361L85.6597 150.398L85.6688 150.421L85.7146 150.545L85.7237 150.577L85.7466 150.636L85.7649 150.696L85.7924 150.769V150.773L85.8519 150.934L85.861 150.956V150.961L85.8702 150.989L85.8794 151.007L85.8839 151.021L85.9286 151.144L85.9526 151.227V151.231L85.9572 151.24L85.9755 151.309L86.0212 151.451L86.0487 151.542L86.0716 151.625L86.0762 151.629L86.0807 151.643L86.1128 151.753V151.757L86.1174 151.762L86.1402 151.844V151.849L86.1494 151.872L86.154 151.89V151.895L86.1769 151.959L86.2351 152.144L86.2455 152.192L86.2684 152.284L86.3783 152.719L86.3828 152.742L86.4011 152.796V152.801L86.4286 152.915L86.4912 153.147L86.4973 153.19L86.5476 153.446L86.6025 153.703V153.712L86.6346 153.867L86.6941 154.147L86.6946 154.152L86.7078 154.252L86.7124 154.27L86.7215 154.334L86.7353 154.44L86.7581 154.586V154.591L86.7627 154.604L86.7673 154.664L86.7856 154.774V154.783L86.7902 154.82L86.8039 154.888L86.8177 155.003L86.8222 155.021L86.8427 155.153L86.8497 155.268L86.8543 155.305L86.8726 155.474L86.8817 155.575V155.593L86.8863 155.671L86.8909 155.707L86.8955 155.762L86.9138 155.923L86.9321 156.142V156.17L86.9367 156.302V156.321L86.9412 156.49V156.504L86.9458 156.692L86.9504 156.728V156.847L86.9641 157.136L86.9595 157.218L86.955 157.264V157.383L86.9504 157.593V157.685L86.9485 157.855L86.9458 157.886L86.9412 157.895V157.918L86.9229 158.216V158.22L86.9183 158.234L86.9 158.536V158.55L86.8955 158.577L86.8863 158.669L86.8726 158.788L86.8405 159.053L86.8314 159.131L86.8268 159.14L86.8256 159.198L86.8131 159.259L86.7902 159.378V159.392L86.7581 159.575L86.7353 159.712L86.7199 159.819L86.7124 159.836L86.6712 160.01L86.6666 160.033V160.042L86.662 160.06L86.6208 160.243L86.5857 160.406L86.5339 160.573V160.577L86.5064 160.664L86.4927 160.71L86.4835 160.742L86.4698 160.793L86.4237 160.959L86.4011 161.012L86.3325 161.2L86.3187 161.237L86.305 161.278L86.2501 161.424L86.2346 161.477L86.186 161.58L86.1631 161.626L86.1036 161.758L86.0304 161.928L86.0029 161.983L85.9892 162.005L85.8977 162.17L85.8702 162.221L85.797 162.353L85.7785 162.403L85.7375 162.454L85.6871 162.532L85.6551 162.582L85.623 162.628L85.6047 162.66L85.5129 162.811L85.4308 162.907L85.4171 162.925L85.385 162.967L85.2935 163.086L85.2752 163.109L85.2431 163.145L85.2386 163.154L85.2233 163.181L85.0829 163.324L85.0646 163.342L84.9639 163.452L84.9319 163.488L84.9104 163.513L84.8266 163.585L84.8129 163.594L84.7442 163.658L84.7214 163.676L84.575 163.805L84.3598 163.955L84.2316 164.042L84.2179 164.058L84.2041 164.061L83.9295 164.216L83.8397 164.271C83.7102 164.335 83.5774 164.392 83.4412 164.443L83.426 164.445L83.0233 164.573L82.9775 164.578L82.5865 164.661L82.5381 164.665L82.1318 164.706C81.8228 164.722 81.5023 164.709 81.1713 164.666L81.1421 164.66L80.667 164.579L80.6295 164.569L80.1477 164.447L80.1306 164.441L79.6141 164.269L79.4898 164.216L79.1099 164.061L79.0962 164.056L79.0671 164.045L78.8856 163.955L78.5698 163.804L78.5072 163.773L78.3318 163.676L78.2997 163.658L78.1853 163.594L78.1716 163.585L78.0388 163.511L77.9977 163.488L77.9354 163.454L77.7597 163.342L77.7505 163.337L77.7276 163.324L77.4942 163.177L77.4576 163.154L77.4438 163.145L77.3843 163.109L77.3523 163.086L77.1829 162.967L77.1234 162.925L77.1006 162.907L76.9587 162.806L76.7527 162.66L76.7069 162.628L76.6428 162.582L76.5743 162.535L76.4735 162.454L76.4048 162.399L76.3499 162.353L76.1806 162.221L76.1165 162.17L75.9105 162.005L75.8785 161.983L75.8464 161.955L75.8111 161.932L75.6176 161.758L75.462 161.626L75.4437 161.607L75.4116 161.58L75.288 161.475L75.2331 161.424L75.0651 161.279L75.0226 161.237L74.9814 161.2L74.7891 161.012L74.7296 160.957L74.5603 160.793L74.5054 160.742L74.4276 160.664L74.3387 160.58L74.3314 160.573L74.1712 160.404L74.0202 160.243L73.8463 160.06L73.7959 160.01L73.6342 159.838L73.6174 159.818L73.5259 159.712L73.4069 159.575L73.2467 159.392L73.2329 159.378L73.1322 159.259L73.0773 159.195L73.027 159.14L73.0224 159.131L72.954 159.056L72.7432 158.788L72.6471 158.669L72.5738 158.577L72.551 158.55L72.5464 158.541L72.5418 158.536L72.3006 158.237L72.2901 158.22L72.2855 158.216L72.0658 157.918L72.0475 157.895L72.0429 157.886L72.02 157.854L71.8964 157.685L71.8278 157.593L71.6762 157.386L71.6447 157.341L71.5944 157.264L71.5623 157.218L71.5394 157.186L71.5074 157.136L71.3106 156.847L71.2328 156.728L71.2099 156.692L71.0832 156.504L71.0726 156.49L70.9673 156.321L70.9581 156.302L70.8758 156.17L70.862 156.147V156.142L70.7247 155.923L70.6286 155.762L70.592 155.707L70.5691 155.671L70.524 155.596L70.5142 155.575L70.4547 155.474L70.3585 155.305L70.3402 155.268L70.2716 155.149L70.1984 155.021L70.1892 155.003L70.1251 154.888L70.0839 154.82L70.061 154.774L70.001 154.665L69.9649 154.604L69.9603 154.591L69.9558 154.586L69.8825 154.44L69.8322 154.334L69.791 154.252L69.7361 154.151V154.147L69.5942 153.867L69.5118 153.703L69.3928 153.446L69.2784 153.19L69.2555 153.144L69.1502 152.915L69.0999 152.801L69.0953 152.796L69.0731 152.744L69.0632 152.719L68.8847 152.284L68.8481 152.192L68.8252 152.142L68.752 151.959L68.7245 151.895V151.89L68.7154 151.872L68.7062 151.849V151.844L68.6696 151.762V151.753L68.6284 151.643L68.6238 151.629V151.625L68.5918 151.542L68.5598 151.451L68.5094 151.309L68.4865 151.24L68.482 151.231V151.227L68.4499 151.14L68.4087 151.021L68.4041 151.007L68.395 150.989L68.3858 150.961V150.956L68.3767 150.934L68.3172 150.773L68.3183 150.769L68.308 150.732L68.2943 150.696L68.2577 150.577L68.2485 150.545L68.2119 150.421L68.2028 150.398L68.1936 150.361L68.1707 150.293L68.1661 150.27L68.157 150.242L68.1524 150.233L68.1478 150.215L68.1295 150.151L68.1021 150.059L68.0792 149.991V149.986L68.0118 149.769L67.9968 149.716L67.9647 149.583L67.8595 149.167L67.8503 149.139L67.8457 149.121L67.8412 149.112L67.8229 149.034L67.7556 148.765L67.7313 148.659L67.6901 148.462L67.6398 148.197L67.6352 148.192L67.626 148.142L67.6123 148.078L67.5482 147.762L67.5523 147.761L67.5345 147.656L67.5299 147.638L67.5253 147.588L67.5208 147.574L67.507 147.469L67.4842 147.322V147.318L67.475 147.244L67.4567 147.135V147.125L67.4384 147.02V147.002L67.4247 146.906L67.4201 146.887L67.4041 146.76L67.3926 146.64L67.388 146.608L67.3697 146.389L67.3651 146.379L67.3606 146.334V146.315L67.356 146.238L67.3514 146.201L67.3468 146.173L67.3285 145.986L67.3135 145.764L67.3102 145.725L67.3056 145.606L67.3011 145.519V145.418L67.2965 145.405L67.2919 145.235V145.18L67.2873 145.038L67.2828 144.777L67.2782 144.723L67.2828 144.672V144.526L67.2873 144.489V144.32L67.2919 144.224L67.2996 144.033L67.2965 144.022L67.3102 143.857L67.3194 143.693V143.688L67.324 143.674L67.3468 143.359L67.3495 143.327L67.3743 143.121V143.098L67.3789 143.075L67.4063 142.855L67.4155 142.777L67.4316 142.66L67.4292 142.649L67.4567 142.516L67.4658 142.457L67.4887 142.333V142.324L67.5345 142.072L67.5451 142.03L67.5757 141.898L67.5848 141.853V141.848L67.6443 141.615L67.6891 141.44L67.7176 141.335V141.331L67.7359 141.281L67.7588 141.198L67.8412 140.951L67.8549 140.896L67.8629 140.889L67.9144 140.75L67.9647 140.631L68.0197 140.484L68.0656 140.376L68.1021 140.301L68.1249 140.251L68.2577 139.981L68.2851 139.926L68.2963 139.904L68.3584 139.793L68.3813 139.756L68.3904 139.743L68.5542 139.471L68.5598 139.454L68.6193 139.377L68.6238 139.367L68.6559 139.326L68.72 139.235L68.8384 139.079L68.9168 138.987L68.9534 138.942L69.0587 138.827L69.1044 138.772L69.1483 138.727L69.2372 138.64L69.2967 138.585L69.3974 138.493L69.4828 138.416L69.5393 138.37L69.5896 138.333L69.5988 138.324L69.7589 138.205L69.8411 138.146L69.9375 138.086L69.9695 138.067L70.1526 137.958L70.1617 137.953L70.2225 137.917L70.3677 137.848L70.386 137.839L70.5554 137.761L70.6261 137.73L70.7293 137.692L70.8391 137.656L70.8483 137.651L70.981 137.605L71.051 137.584L71.3792 137.504L71.4342 137.491L71.4964 137.481L71.8873 137.427L71.9615 137.42L72.4455 137.402ZM179.969 137.317L180.464 137.339L180.946 137.403L181.068 137.427L181.288 137.477L181.352 137.491L181.413 137.509L181.65 137.582L181.718 137.605L181.864 137.655L181.869 137.656L181.956 137.692L182.039 137.729L182.117 137.761L182.297 137.842L182.313 137.848L182.437 137.916L182.501 137.953L182.51 137.958L182.711 138.069L182.734 138.086L182.908 138.205L183.105 138.336L183.146 138.37L183.201 138.415L183.297 138.493L183.407 138.585L183.478 138.643C183.598 138.751 183.715 138.866 183.828 138.988L183.902 139.079L184.039 139.235L184.117 139.326L184.154 139.372L184.158 139.377L184.213 139.454L184.222 139.468L184.414 139.743L184.423 139.756L184.455 139.794L184.52 139.903L184.533 139.926L184.565 139.981L184.73 140.253L184.753 140.301L184.977 140.75L185.032 140.887L185.037 140.896L185.06 140.951L185.124 141.116L185.16 141.198L185.196 141.283L185.211 141.331V141.335L185.243 141.436L185.38 141.848L185.384 141.853L185.385 141.876L185.394 141.898L185.426 142.027L185.44 142.072L185.504 142.324L185.508 142.333L185.541 142.459L185.554 142.516L185.577 142.649V142.658L185.6 142.777L185.618 142.855L185.659 143.075L185.668 143.121L185.691 143.327L185.696 143.331V143.359L185.737 143.674L185.742 143.688V143.693L185.755 143.778L185.755 143.857L185.769 144.022V144.031L185.787 144.224L185.792 144.32L185.81 144.489L185.806 144.567L185.81 144.645V144.723L185.815 144.777L185.819 145.038L185.824 145.18L185.829 145.235L185.819 145.405V145.418L185.815 145.519V145.606L185.81 145.725V145.762L185.806 145.986L185.803 146.176L185.801 146.201L185.797 146.238L185.792 146.315L185.787 146.334V146.379L185.783 146.389L185.769 146.608L185.765 146.64L185.755 146.759L185.746 146.887V146.906L185.737 147.002V147.02L185.729 147.126L185.728 147.135L185.705 147.318L185.7 147.322L185.682 147.469L185.668 147.574V147.588L185.659 147.638V147.656L185.646 147.757V147.762L185.606 148.08L185.595 148.142L185.586 148.192L185.581 148.197L185.536 148.462L185.504 148.659L185.481 148.764L185.437 149.035L185.417 149.112V149.121L185.412 149.139L185.403 149.167L185.311 149.583L185.279 149.716L185.27 149.766L185.223 149.988L185.22 149.991L185.202 150.059L185.174 150.151L185.156 150.215L185.151 150.233V150.242L185.142 150.27L185.137 150.293L185.133 150.307L185.11 150.398L185.101 150.421L185.069 150.545L185.06 150.577L185.046 150.636L185.028 150.696L185.009 150.769L185.005 150.773L184.965 150.936L184.954 150.956V150.961L184.945 150.989L184.941 151.007L184.936 151.021L184.899 151.14L184.867 151.227V151.231L184.863 151.24L184.845 151.309L184.799 151.451L184.767 151.542L184.739 151.625V151.629L184.698 151.753V151.762L184.671 151.844V151.849L184.666 151.875L184.657 151.89L184.652 151.895L184.629 151.959L184.561 152.142L184.542 152.192L184.51 152.284L184.355 152.719L184.346 152.742L184.323 152.796L184.327 152.802L184.277 152.915L184.181 153.144L184.163 153.19L183.952 153.703L183.948 153.713L183.874 153.867L183.746 154.147L183.741 154.151L183.696 154.252L183.687 154.27L183.659 154.334L183.609 154.44L183.54 154.586L183.535 154.591L183.533 154.606L183.499 154.664L183.421 154.82L183.407 154.842L183.384 154.888L183.325 155.003L183.316 155.021L183.247 155.149L183.183 155.268L183.165 155.305L183.082 155.476L183.023 155.575L183.009 155.593L182.968 155.671L182.945 155.707L182.913 155.762L182.821 155.923L182.698 156.142V156.147L182.684 156.17L182.606 156.302L182.597 156.321L182.492 156.49L182.483 156.504L182.364 156.692L182.341 156.728L182.263 156.847L182.08 157.137L182.043 157.186L182.02 157.218L181.988 157.264L181.934 157.341L181.906 157.383L181.76 157.593L181.696 157.685L181.577 157.854L181.554 157.886L181.549 157.895L181.532 157.921L181.302 158.216L181.297 158.22L181.288 158.234L181.055 158.536V158.541L181.046 158.55L181.023 158.577L180.954 158.669L180.853 158.788L180.624 159.053L180.556 159.131L180.551 159.14L180.501 159.195L180.446 159.259L180.349 159.378L180.332 159.392L180.158 159.575L180.029 159.712L179.929 159.818L179.91 159.836L179.746 160.01L179.695 160.06L179.503 160.243L179.334 160.404L179.155 160.573L179.151 160.577L179.06 160.666L179.004 160.71L178.968 160.742L178.908 160.793L178.711 160.957L178.643 161.012L178.423 161.2L178.38 161.239L178.322 161.278L178.125 161.424L178.057 161.475L177.915 161.58L177.878 161.607L177.855 161.626L177.679 161.759L177.411 161.928L177.37 161.955L177.324 161.983L177.292 162.005L177.031 162.17L176.957 162.223L176.711 162.353L176.629 162.399L176.528 162.454L176.386 162.532L176.295 162.582L176.217 162.628L176.148 162.66L175.86 162.806L175.659 162.911L175.617 162.925L175.521 162.967L175.242 163.086L175.192 163.109L175.107 163.148L175.077 163.154L175.013 163.177L174.601 163.324L174.561 163.342L174.542 163.342L174.153 163.452L174.023 163.491L173.905 163.511L173.535 163.585L173.493 163.597C173.318 163.625 173.145 163.646 172.973 163.66L172.465 163.68L171.969 163.658C171.806 163.644 171.645 163.623 171.487 163.594L171.443 163.585L171.118 163.511L171.02 163.489L170.903 163.452L170.57 163.342L170.56 163.337L170.527 163.324L170.189 163.177L170.137 163.155L170.116 163.145L170.051 163.109L170.01 163.086L169.795 162.967L169.722 162.928L169.543 162.806L169.328 162.661L169.287 162.628L169.232 162.582L169.173 162.532L169.077 162.454L169.008 162.399L168.956 162.355C168.835 162.246 168.718 162.131 168.606 162.01L168.587 161.983L168.559 161.955L168.536 161.928L168.39 161.758L168.279 161.626L168.262 161.607L168.244 161.58L168.17 161.475L168.134 161.424L168.028 161.278L168.001 161.237L167.978 161.204L167.859 161.012L167.731 160.793L167.703 160.744L167.685 160.71L167.662 160.664L167.616 160.577V160.573L167.53 160.404L167.456 160.248L167.378 160.06L167.365 160.033L167.356 160.01L167.287 159.836L167.278 159.818L167.238 159.714L167.191 159.575L167.131 159.392L167.127 159.378L167.09 159.259L167.067 159.195L167.05 159.144L167.044 159.131L167.026 159.053L166.957 158.788L166.925 158.669L166.898 158.577L166.893 158.55L166.889 158.541L166.893 158.538L166.829 158.234V158.22L166.825 158.216L166.77 157.918L166.769 157.896L166.765 157.886L166.761 157.854L166.738 157.685L166.729 157.593L166.701 157.383L166.692 157.341L166.683 157.264L166.679 157.22L166.674 157.186V157.136L166.651 156.847L166.642 156.728L166.637 156.692L166.624 156.508L166.623 156.49L166.619 156.321V156.302L166.614 156.17V156.142L166.605 155.923V155.762L166.6 155.707L166.605 155.671V155.575L166.61 155.474L166.614 155.305V155.268L166.619 155.149L166.623 155.021V155.003L166.628 154.888L166.63 154.821L166.632 154.783V154.774L166.642 154.664L166.646 154.604V154.586L166.655 154.44L166.664 154.334L166.669 154.27L166.674 154.252L166.678 154.151V154.147L166.705 153.872L166.719 153.712L166.724 153.703L166.788 153.19L166.797 153.144L166.828 152.918L166.843 152.801L166.848 152.796L166.857 152.742L166.861 152.719L166.934 152.284L166.953 152.192L166.962 152.142L166.997 151.963L167.008 151.895V151.89L167.012 151.872L167.017 151.849L167.021 151.844L167.04 151.762V151.753L167.067 151.643V151.625L167.09 151.542L167.108 151.451L167.14 151.309L167.154 151.24L167.159 151.231V151.227L167.177 151.14L167.205 151.021L167.211 151.009L167.214 150.989L167.223 150.961V150.956L167.227 150.934L167.273 150.773V150.769L167.292 150.696L167.31 150.636L167.324 150.577L167.333 150.545L167.369 150.421L167.374 150.398L167.397 150.307L167.401 150.293L167.411 150.27L167.415 150.242L167.42 150.233L167.424 150.215L167.443 150.151L167.468 150.062L167.488 149.991V149.986L167.562 149.766L167.575 149.716L167.616 149.583L167.754 149.167L167.763 149.139L167.768 149.123L167.772 149.112L167.8 149.034L167.896 148.764L167.937 148.659L168.006 148.462L168.106 148.197L168.107 148.196L168.129 148.142L168.152 148.078L168.285 147.762V147.757L168.326 147.656L168.335 147.638L168.353 147.588L168.363 147.574L168.404 147.469L168.463 147.322L168.468 147.318L168.485 147.284L168.5 147.244L168.55 147.135L168.555 147.125L168.605 147.02L168.61 147.002L168.655 146.906L168.665 146.887L168.724 146.759L168.779 146.64L168.797 146.608L168.9 146.392L168.935 146.315L168.976 146.238L169.008 146.173L169.104 145.986L169.223 145.762L169.232 145.739L169.241 145.725L169.301 145.606L169.351 145.521L169.406 145.418L169.411 145.405L169.511 145.235L169.539 145.18L169.621 145.038L169.772 144.777L169.804 144.723L169.836 144.676L169.85 144.645L169.9 144.567L169.923 144.526L169.946 144.489L170.056 144.32L170.116 144.224L170.239 144.031L170.244 144.022L170.353 143.86L170.408 143.775L170.463 143.693L170.468 143.688L170.477 143.674L170.697 143.359L170.72 143.331V143.327L170.866 143.121L170.88 143.098L170.902 143.077L171.068 142.855L171.127 142.777L171.219 142.658L171.223 142.649L171.328 142.516L171.374 142.457L171.466 142.333L171.479 142.328L171.69 142.072L171.731 142.027L171.841 141.898L171.878 141.853L171.882 141.848L172.085 141.619L172.253 141.436L172.349 141.335L172.354 141.331L172.399 141.281L172.482 141.198L172.717 140.952L172.775 140.896L172.784 140.887L172.926 140.75L173.054 140.631L173.205 140.484L173.319 140.374L173.374 140.331L173.402 140.301L173.461 140.251L173.786 139.981L173.85 139.926L173.878 139.903L174.006 139.793L174.053 139.759L174.07 139.743L174.441 139.468L174.459 139.454L174.56 139.377L174.574 139.367L174.629 139.326L174.755 139.239L174.995 139.079L175.137 138.987L175.21 138.942L175.388 138.827L175.434 138.8L175.477 138.775L175.558 138.727L175.718 138.64L175.819 138.585L175.988 138.493L176.13 138.415L176.217 138.37L176.304 138.324L176.537 138.205L176.652 138.145L176.774 138.087L176.812 138.067L177.068 137.958L177.077 137.953L177.164 137.916L177.326 137.849L177.352 137.839L177.572 137.761L177.663 137.729L177.764 137.692L177.872 137.656L177.887 137.651L178.048 137.605L178.13 137.582L178.411 137.506L178.546 137.477L178.803 137.427L178.941 137.4C179.116 137.372 179.289 137.351 179.46 137.337L179.969 137.317ZM93.9576 124.671L94.4596 124.68C94.6298 124.69 94.8029 124.707 94.9787 124.732L95.2577 124.78L95.5141 124.829L95.7978 124.899L95.8665 124.918L95.9397 124.936L96.065 124.972L96.3471 125.064L96.6126 125.156L96.6306 125.161L96.6354 125.165L96.878 125.261L96.8872 125.265L97.0931 125.348L97.1069 125.352L97.2099 125.397L97.4273 125.499L97.4364 125.503L97.6287 125.595L97.647 125.604L97.7797 125.668L97.8163 125.687L97.9948 125.787L98.0772 125.833L98.4068 126.012L98.5395 126.108L98.8187 126.304L99.0064 126.437L99.043 126.465L99.1848 126.562L99.5556 126.858L99.8073 127.055L99.8348 127.078L99.948 127.165L100.087 127.289L100.622 127.755L100.694 127.818L100.714 127.838L101.148 128.254L101.373 128.469L101.42 128.517L101.551 128.652L101.679 128.79L102.082 129.215L102.125 129.26L102.215 129.362L102.334 129.499L102.732 129.962L102.805 130.041L102.892 130.154L103.066 130.369L103.245 130.598L103.458 130.86L103.638 131.106L103.753 131.261L104.083 131.711L104.252 131.962L104.316 132.058L104.394 132.172L104.676 132.593L104.892 132.946L104.934 133.014L104.989 133.101L105.235 133.501L105.483 133.944L105.497 133.966L105.538 134.04L105.758 134.433L106.005 134.914L106.242 135.384L106.453 135.852L106.494 135.939L106.499 135.948L106.686 136.353L106.856 136.781L106.906 136.896L106.929 136.951L107.076 137.317L107.086 137.335L107.108 137.399L107.112 137.418L107.117 137.427L107.135 137.477L107.144 137.504L107.172 137.582L107.199 137.651V137.656L107.227 137.729L107.236 137.761L107.263 137.839L107.268 137.848L107.291 137.916L107.305 137.953V137.958L107.346 138.067L107.35 138.086L107.396 138.205L107.441 138.328L107.442 138.333L107.451 138.37L107.465 138.415L107.488 138.493L107.515 138.585L107.533 138.64L107.561 138.727L107.575 138.772L107.593 138.827L107.625 138.942L107.666 139.079L107.717 139.235L107.747 139.328L107.753 139.367L107.758 139.377L107.776 139.454L107.781 139.468L107.849 139.743L107.854 139.756L107.89 139.903L107.895 139.926L107.913 139.981L107.982 140.251L107.991 140.301L108.003 140.332L108.009 140.374L108.032 140.484L108.06 140.631L108.087 140.75L108.115 140.887V140.896L108.128 140.951L108.16 141.116L108.197 141.281L108.206 141.331L108.207 141.336L108.22 141.436L108.247 141.615L108.279 141.848L108.284 141.853V141.876L108.289 141.898L108.307 142.027L108.316 142.072L108.353 142.324L108.355 142.338L108.362 142.457L108.371 142.516L108.38 142.649L108.385 142.658L108.394 142.777L108.398 142.855L108.421 143.075V143.098L108.426 143.121L108.444 143.327V143.359L108.453 143.674V143.693L108.458 143.775V143.857L108.463 144.022V144.031L108.467 144.224L108.476 144.32L108.467 144.489V144.672L108.463 144.723V144.777L108.461 145.039L108.449 145.18L108.444 145.217V145.235L108.435 145.405L108.431 145.418L108.426 145.519L108.421 145.606L108.414 145.727L108.412 145.739L108.408 145.762L108.38 145.986L108.357 146.173V146.201L108.353 146.238L108.344 146.315L108.339 146.334L108.338 146.382L108.334 146.389L108.298 146.608L108.289 146.64L108.27 146.759L108.247 146.887V146.906L108.232 147.003L108.225 147.02L108.202 147.125L108.197 147.135L108.174 147.244L108.156 147.318V147.322L108.124 147.469L108.101 147.574L108.098 147.591L108.083 147.638L108.078 147.656L108.046 147.757V147.762L107.95 148.078L107.936 148.143L107.913 148.192V148.197L107.817 148.462L107.747 148.661L107.698 148.764L107.575 149.034L107.543 149.112L107.515 149.167L107.291 149.587L107.199 149.716L107.167 149.766L107.025 149.986L107.025 149.995L106.966 150.059L106.897 150.151L106.847 150.215L106.833 150.233L106.824 150.242L106.806 150.27L106.787 150.293L106.774 150.307L106.735 150.365L106.7 150.398L106.678 150.421L106.563 150.545L106.531 150.577L106.423 150.697L106.339 150.769L106.334 150.773L106.151 150.934L106.124 150.956L106.119 150.961L106.087 150.99L106.06 151.007L106.041 151.021L105.872 151.14L105.744 151.227L105.739 151.231L105.73 151.243L105.602 151.309L105.352 151.455L105.14 151.542L104.953 151.627L104.938 151.629L104.892 151.643L104.535 151.757L104.49 151.762L104.099 151.845L104.05 151.849L103.826 151.872L103.644 151.891C103.489 151.899 103.332 151.899 103.172 151.893L102.952 151.872L102.683 151.85L102.654 151.844L102.179 151.764L102.142 151.753L101.711 151.643L101.66 151.632L101.396 151.542L101.126 151.454L100.778 151.309L100.608 151.24L100.585 151.231L100.579 151.229L100.398 151.14L100.151 151.021L100.123 151.007L100.082 150.989L100.019 150.957L99.9767 150.934L99.6929 150.773L99.6838 150.769L99.6151 150.732L99.551 150.696L99.4476 150.638L99.3496 150.577L99.2993 150.545L99.1025 150.421L99.0659 150.398L99.0064 150.361L98.9194 150.307L98.8965 150.293L98.8645 150.27L98.8233 150.242L98.7821 150.215L98.6951 150.151L98.4708 149.991L98.4617 149.986L98.155 149.766L98.0864 149.719L97.917 149.583L97.3907 149.167L97.3586 149.139L97.3357 149.121L97.3233 149.116L97.2305 149.034L96.9238 148.764L96.8002 148.659L96.5773 148.463L96.3013 148.197L96.2967 148.192L96.2418 148.142L96.1777 148.078L95.8509 147.764L95.8436 147.757L95.7475 147.656L95.7292 147.638L95.6834 147.588L95.6697 147.574L95.569 147.469L95.4317 147.322L95.3905 147.281L95.3584 147.244L95.2532 147.135L95.244 147.125L95.1464 147.022L95.1296 147.002L95.0426 146.906L95.0289 146.887L94.919 146.759L94.8138 146.64L94.7863 146.608L94.5986 146.389L94.5895 146.379L94.5483 146.334L94.5346 146.315L94.4662 146.24L94.4385 146.201L94.4156 146.173L94.2645 145.986L94.086 145.762L94.0677 145.739L94.0586 145.725L93.9624 145.606L93.8938 145.519L93.8128 145.422L93.8022 145.405L93.6787 145.235L93.6375 145.18L93.5322 145.038L93.34 144.777L93.2988 144.723L93.2621 144.672L93.2438 144.645L93.1883 144.57L93.1569 144.526L93.134 144.489L93.0196 144.32L92.9555 144.224L92.8227 144.031L92.8182 144.022L92.5985 143.693L92.5954 143.689L92.5847 143.674L92.3925 143.359L92.3742 143.331V143.327L92.246 143.121L92.2186 143.075L92.0813 142.855L92.0362 142.78L91.9668 142.658L91.9623 142.649L91.889 142.516L91.8524 142.457L91.7838 142.333L91.7792 142.324L91.6373 142.072L91.6098 142.027L91.5366 141.898L91.5229 141.876L91.5137 141.853L91.5132 141.849L91.3901 141.615L91.3032 141.436L91.2482 141.335V141.331L91.2208 141.281L91.024 140.887L90.9599 140.75L90.905 140.631L90.8409 140.484L90.7905 140.374L90.7677 140.329L90.7585 140.301L90.731 140.251L90.6075 139.981L90.5852 139.928L90.5754 139.903L90.5296 139.793L90.5159 139.756L90.5113 139.743L90.3969 139.468L90.3923 139.454L90.3603 139.377L90.3557 139.367L90.3374 139.326L90.3008 139.235L90.2367 139.079L90.185 138.946L90.1406 138.827L90.1223 138.772L90.104 138.727L90.0719 138.64L90.0536 138.585L90.0216 138.493L89.9941 138.415L89.9758 138.37L89.9667 138.333L89.9621 138.324L89.9209 138.205L89.8751 138.086L89.8706 138.067L89.8294 137.958L89.8304 137.953L89.8202 137.916L89.7973 137.848L89.7927 137.839L89.7698 137.761L89.7607 137.729L89.7515 137.692L89.7378 137.656V137.651L89.7241 137.605L89.7149 137.582L89.692 137.504L89.6829 137.477L89.6692 137.427L89.6646 137.418L89.66 137.399L89.6417 137.335L89.6325 137.317L89.5239 136.953L89.509 136.896L89.4815 136.781L89.3716 136.351L89.2678 135.95L89.2664 135.939L89.2481 135.852L89.1519 135.381L89.0696 134.987L89.0645 134.945L89.0558 134.914L88.9872 134.429L88.9277 134.04L88.9185 133.966L88.9163 133.944L88.8727 133.5L88.8361 133.101L88.827 133.014L88.8257 132.948L88.8087 132.589L88.7949 132.172V132.058V131.962V131.71L88.8118 131.265L88.8224 131.106L88.8407 130.859L88.8616 130.599L88.8865 130.369L88.9185 130.154L88.9323 130.039L88.9437 129.964L89.0284 129.499L89.0572 129.362L89.0833 129.257L89.0925 129.215L89.2013 128.793L89.2435 128.652L89.2847 128.515L89.303 128.469L89.3751 128.257L89.5456 127.838L89.5547 127.815L89.5777 127.756C89.65 127.595 89.727 127.439 89.8084 127.29L89.8797 127.165L89.93 127.078L89.9438 127.055L90.0663 126.859L90.2779 126.561L90.3506 126.465L90.3694 126.437L90.4885 126.304L90.6604 126.108L90.7585 126.012L90.9462 125.833L90.9949 125.789L91.1201 125.687L91.1292 125.677L91.143 125.668L91.2208 125.604L91.2345 125.595L91.3533 125.508L91.3581 125.499L91.5274 125.394L91.5915 125.352L91.6007 125.348L91.7347 125.266C91.8656 125.192 92.0001 125.125 92.1383 125.065L92.4657 124.936L92.4795 124.931L92.5161 124.918L92.5632 124.904L92.8365 124.826L93.0086 124.784C93.1604 124.751 93.3155 124.725 93.4737 124.706L93.9576 124.671ZM158.456 121.298L158.952 121.32L159.434 121.384L159.515 121.398L159.901 121.489C160.054 121.531 160.204 121.58 160.352 121.635L160.357 121.636L160.559 121.723L160.785 121.822L160.801 121.828L161.199 122.05L161.199 122.052L161.209 122.057L161.222 122.066L161.502 122.254L161.593 122.317L161.634 122.35L161.966 122.623C162.086 122.732 162.203 122.847 162.316 122.968L162.522 123.21L162.527 123.215L162.554 123.247L162.642 123.352L162.843 123.636L162.911 123.737L162.934 123.769L162.943 123.774L163.085 124.016L163.218 124.233L163.255 124.309L163.419 124.638L163.438 124.67V124.675L163.465 124.73L163.483 124.78L163.506 124.826L163.534 124.899L163.543 124.918L163.547 124.931V124.936L163.602 125.064L163.639 125.156V125.165L163.684 125.264L163.68 125.265L163.708 125.348L163.712 125.352L163.726 125.394L163.758 125.499V125.503L163.79 125.595L163.795 125.604L163.813 125.668L163.822 125.687L163.854 125.787L163.872 125.834L163.914 126.012L163.941 126.108L163.991 126.304L164.028 126.44L164.033 126.465L164.051 126.561L164.11 126.858L164.147 127.055L164.153 127.081L164.161 127.165L164.179 127.289L164.243 127.758L164.243 127.815V127.838L164.275 128.254L164.298 128.47L164.294 128.515L164.303 128.79L164.316 129.215L164.312 129.257L164.307 129.362L164.303 129.499L164.294 129.962V130.039L164.291 130.157L164.271 130.369L164.257 130.598L164.234 130.859L164.216 131.106L164.197 131.261L164.138 131.71L164.106 131.962L164.094 132.06L164.074 132.172L163.996 132.589L163.937 132.946L163.924 133.015L163.904 133.101L163.813 133.5L163.712 133.944L163.71 133.969L163.689 134.04L163.584 134.429L163.453 134.916L163.442 134.941L163.428 134.987L163.3 135.381L163.154 135.855L163.117 135.939L163.113 135.948L162.966 136.351L162.814 136.782L162.765 136.896L162.742 136.951L162.591 137.317L162.582 137.335L162.554 137.399L162.55 137.418L162.545 137.427L162.522 137.477L162.513 137.504L162.481 137.582L162.454 137.651L162.449 137.656L162.436 137.694L162.417 137.729L162.403 137.761L162.367 137.839L162.362 137.848L162.33 137.916L162.312 137.953V137.958L162.261 138.067L162.252 138.086L162.142 138.324L162.097 138.415L162.06 138.493L162.021 138.586L161.991 138.64L161.945 138.727L161.909 138.8L161.891 138.827L161.831 138.942L161.762 139.079L161.68 139.235L161.634 139.326L161.611 139.367L161.607 139.377L161.57 139.457L161.556 139.468L161.401 139.743L161.396 139.756L161.373 139.793L161.309 139.903L161.3 139.926L161.268 139.981L161.112 140.251L161.085 140.301L161.067 140.329L161.039 140.374L160.971 140.484L160.874 140.631L160.801 140.75L160.714 140.887L160.705 140.896L160.673 140.951L160.568 141.117L160.508 141.198L160.453 141.281L160.417 141.331L160.412 141.335L160.344 141.436L160.22 141.615L160.055 141.848L160.051 141.853L160.037 141.876L160.02 141.901L159.918 142.027L159.886 142.072L159.694 142.324L159.684 142.333L159.588 142.457L159.543 142.516L159.442 142.649L159.433 142.658L159.332 142.777L159.263 142.855L159.076 143.075L159.039 143.121L158.861 143.327L158.856 143.331L158.836 143.359L158.531 143.674L158.517 143.688V143.693L158.435 143.775L158.204 144.026L158.192 144.031L157.89 144.32L157.712 144.489L157.671 144.526L157.629 144.567L157.548 144.647L157.515 144.672L157.455 144.723L157.387 144.777L157.076 145.038L156.911 145.18L156.842 145.235L156.613 145.405L156.595 145.418L156.458 145.519L156.343 145.606L156.183 145.725L156.166 145.739L156.128 145.762L155.78 145.986L155.483 146.173L155.445 146.203L155.373 146.238L155.231 146.315L155.199 146.334L155.117 146.379L155.098 146.389L154.705 146.608L154.636 146.64L154.403 146.759L154.147 146.891L154.105 146.906L153.881 147.002L153.84 147.02L153.595 147.129L153.565 147.135L153.254 147.244L153.153 147.281L153.049 147.322L153.029 147.322L152.51 147.472C152.332 147.514 152.156 147.549 151.981 147.578L151.867 147.588L151.461 147.64L150.953 147.661L150.457 147.639L150.073 147.588L149.975 147.575C149.659 147.518 149.352 147.434 149.057 147.323L149.047 147.318L148.96 147.281L148.878 147.244L148.624 147.136L148.603 147.125L148.416 147.02L148.384 147.002L148.21 146.908L148.182 146.887L147.995 146.759L147.816 146.641L147.775 146.608L147.509 146.389L147.496 146.379L147.443 146.335C147.323 146.227 147.206 146.111 147.093 145.99L146.896 145.762L146.878 145.739L146.869 145.725L146.767 145.606L146.704 145.519L146.631 145.418L146.622 145.405L146.503 145.235L146.466 145.184L146.374 145.038L146.219 144.777L146.191 144.725L146.164 144.672L146.15 144.645L146.109 144.567L146.091 144.526L146.072 144.489L145.985 144.32L145.944 144.228L145.862 144.031L145.857 144.022L145.793 143.857L145.756 143.775L145.726 143.694L145.724 143.688L145.605 143.331V143.327L145.537 143.124L145.532 143.098L145.523 143.075L145.468 142.855L145.445 142.777L145.413 142.658V142.649L145.381 142.518L145.363 142.457L145.34 142.333V142.324L145.28 142.027L145.258 141.898L145.248 141.853V141.848L145.221 141.615L145.198 141.436L145.184 141.335V141.331L145.175 141.281L145.166 141.2L145.161 141.116L145.143 140.896V140.887L145.129 140.75L145.12 140.631L145.111 140.489L145.106 140.374V140.301L145.102 140.251L145.097 139.981L145.093 139.926V139.903L145.088 139.793L145.093 139.743L145.097 139.468V139.454L145.102 139.377V139.326L145.106 139.235L145.111 139.079L145.116 138.987V138.942L145.12 138.827L145.121 138.801L145.125 138.772V138.727L145.134 138.64L145.139 138.585L145.148 138.493L145.152 138.415L145.157 138.37L145.161 138.333V138.324L145.175 138.145L145.184 138.086V138.067L145.193 137.958V137.953L145.198 137.916L145.203 137.852L145.203 137.839L145.216 137.761L145.221 137.729L145.23 137.656V137.651L145.235 137.605L145.239 137.582L145.248 137.504L145.253 137.491V137.477L145.262 137.427V137.418L145.267 137.399L145.276 137.335V137.317L145.326 136.951L145.338 136.898L145.358 136.781L145.441 136.351L145.518 135.948L145.522 135.943L145.541 135.852L145.656 135.381L145.754 134.99L145.766 134.941L145.775 134.914L145.912 134.429L146.031 134.042L146.049 133.966L146.059 133.944L146.21 133.5L146.35 133.103L146.379 133.014L146.406 132.946L146.548 132.589L146.71 132.176L146.759 132.058L146.8 131.962L146.91 131.71L147.109 131.265L147.184 131.106L147.303 130.859L147.432 130.598L147.543 130.372L147.656 130.154L147.72 130.039L147.761 129.962L148.011 129.502L148.091 129.362L148.15 129.257L148.178 129.215L148.425 128.79L148.51 128.657L148.594 128.515L148.626 128.469L148.764 128.254L149.037 127.841L149.052 127.815L149.093 127.755L149.423 127.289L149.51 127.165L149.569 127.078L149.592 127.057L149.738 126.858L149.972 126.561L150.045 126.465L150.068 126.437L150.17 126.309L150.334 126.108L150.416 126.012L150.567 125.833L150.608 125.787L150.691 125.687L150.7 125.677L150.704 125.668L150.759 125.604L150.771 125.6L150.855 125.503L150.86 125.499L150.956 125.394L151.002 125.348L151.08 125.265V125.261L151.171 125.165L151.18 125.156L151.267 125.064L151.354 124.968L151.423 124.899L151.501 124.826L151.688 124.638L151.972 124.364L152.029 124.311L152.114 124.231L152.361 124.016L152.636 123.773L152.64 123.769L152.681 123.739L152.805 123.636L153.176 123.348L153.304 123.247L153.346 123.219L153.35 123.21L153.707 122.968L154.021 122.755L154.142 122.679L154.151 122.675L154.242 122.62L154.705 122.35L154.773 122.313L154.888 122.254L155.262 122.067L155.281 122.057L155.3 122.048L155.814 121.829L155.84 121.819L156.11 121.723L156.36 121.636L156.375 121.631L156.899 121.486L157.336 121.398L157.428 121.381C157.603 121.352 157.777 121.331 157.948 121.318L158.456 121.298ZM200.565 99.3276L201.061 99.3497C201.55 99.3928 202.019 99.4988 202.461 99.6656L202.466 99.666L202.745 99.785L202.787 99.8033L202.894 99.8526L202.91 99.8582L202.924 99.8673L203.116 99.9726L203.308 100.08L203.331 100.096L203.363 100.119L203.372 100.124L203.643 100.307L203.702 100.347L203.743 100.38L203.931 100.536L203.954 100.554L204.075 100.653C204.195 100.762 204.312 100.877 204.425 100.998L204.517 101.108L204.567 101.167L204.751 101.382L204.778 101.414L204.805 101.456L204.878 101.561L205.052 101.804L205.066 101.835L205.176 102.014L205.18 102.019L205.327 102.263L205.556 102.719L205.574 102.76L205.707 103.09L205.762 103.218L205.792 103.294L205.812 103.364L205.926 103.703L205.94 103.749L205.981 103.864L206.041 104.106L206.1 104.321L206.137 104.47L206.219 104.888L206.224 104.925L206.251 105.058L206.261 105.111L206.32 105.566L206.338 105.703L206.352 105.788L206.348 105.79L206.384 106.243L206.407 106.5L206.402 106.554L206.412 106.957L206.425 107.246L206.416 107.351V107.424L206.412 107.703L206.398 108.17L206.4 108.187L206.389 108.326L206.366 108.582L206.334 109.012L206.325 109.136L206.311 109.246L206.279 109.479L206.229 109.873L206.203 110.09L206.183 110.179L206.151 110.381L206.087 110.747L206.033 111.045L205.977 111.292L205.899 111.63L205.819 111.999L205.794 112.079L205.762 112.207L205.675 112.518L205.562 112.946L205.528 113.04L205.505 113.118L205.409 113.411L205.263 113.885L205.217 114.001L205.203 114.029L205.103 114.303L204.923 114.812L204.874 114.926L204.86 114.958L204.764 115.187L204.545 115.724L204.503 115.814L204.457 115.905L204.384 116.061L204.13 116.616L204.091 116.688L204.004 116.848L203.967 116.926L203.679 117.487L203.643 117.544L203.51 117.773L203.194 118.332L203.166 118.372L203.08 118.514L202.677 119.148L202.654 119.178L202.617 119.228L202.146 119.906L202.109 119.951L201.651 120.546L201.551 120.679L201.537 120.693L201.148 121.151L201.02 121.297L201.006 121.315L200.951 121.38L200.933 121.398L200.85 121.485L200.713 121.631L200.709 121.636L200.626 121.723L200.535 121.819L200.526 121.828L200.315 122.048L200.297 122.066L200.1 122.254L200.036 122.313L199.999 122.35L199.715 122.62L199.657 122.677L199.651 122.679L199.564 122.753L199.308 122.968L199.02 123.21L199.011 123.215L198.977 123.249L198.837 123.348L198.452 123.636L198.315 123.737L198.275 123.769L198.264 123.773L197.889 124.016L197.554 124.233L197.409 124.309L197.308 124.364L196.814 124.638L196.626 124.73L196.53 124.78L196.256 124.921L196.223 124.931L196.214 124.936L196.136 124.968L195.916 125.064L195.704 125.159L195.674 125.165L195.404 125.261L195.39 125.265L195.158 125.352L195.138 125.352L194.992 125.394L194.619 125.502L194.594 125.503L194.131 125.595L194.09 125.608C193.915 125.636 193.741 125.657 193.57 125.671L193.317 125.677L193.062 125.691L192.809 125.677L192.566 125.669L192.084 125.605L192.04 125.595L191.632 125.503L191.617 125.499L191.294 125.394L191.166 125.353L191.156 125.348L190.964 125.265L190.955 125.261L190.733 125.166L190.712 125.156L190.548 125.064L190.378 124.968L190.319 124.939L190.314 124.931L190.291 124.918L190.154 124.826L190.09 124.78L190.012 124.73L189.93 124.675L189.925 124.672L189.884 124.638L189.552 124.365C189.432 124.257 189.315 124.142 189.202 124.02L188.991 123.773L188.987 123.769L188.959 123.737L188.876 123.636L188.666 123.348L188.598 123.247L188.575 123.215V123.214L188.424 122.968L188.3 122.755L188.259 122.679V122.675L188.232 122.62L188.094 122.35L188.076 122.313L188.053 122.258L187.971 122.066V122.057L187.966 122.052V122.048L187.875 121.828V121.819L187.835 121.725L187.806 121.636L187.801 121.631L187.756 121.485L187.728 121.398L187.719 121.38L187.701 121.315L187.691 121.297L187.646 121.154L187.522 120.693V120.679L187.49 120.548L187.371 119.951L187.366 119.907C187.33 119.687 187.3 119.462 187.275 119.23L187.27 119.178V119.146L187.22 118.519L187.215 118.372V118.331L187.202 117.773L187.206 117.544V117.484L187.225 116.926L187.229 116.849L187.243 116.688L187.247 116.615L187.293 116.061L187.311 115.91L187.334 115.722L187.353 115.603L187.412 115.187L187.446 114.96L187.449 114.926L187.472 114.811L187.568 114.303L187.623 114.029L187.631 114.003L187.655 113.882L187.769 113.411L187.842 113.118L187.865 113.043L187.888 112.944L188.016 112.518L188.108 112.207L188.146 112.083L188.172 111.997L188.296 111.63L188.415 111.292L188.473 111.128L188.502 111.045L188.616 110.747L188.762 110.381L188.843 110.181L188.881 110.088L188.978 109.873L189.152 109.479L189.255 109.246L189.307 109.136L189.367 109.012L189.577 108.582L189.707 108.327L189.783 108.184L189.788 108.17L190.044 107.703L190.198 107.428L190.241 107.351L190.3 107.246L190.474 106.957L190.717 106.554L190.725 106.553L190.754 106.5L190.927 106.243L191.225 105.79L191.23 105.785L191.286 105.705L191.385 105.566L191.719 105.108L191.756 105.058L191.852 104.925L191.88 104.889L192.214 104.467L192.301 104.357L192.333 104.321L192.506 104.108L192.717 103.863L192.818 103.749L192.859 103.703L192.983 103.561L193.161 103.367L193.23 103.291L193.298 103.218L193.427 103.09L193.747 102.76L193.843 102.668L193.994 102.527L194.278 102.261L194.543 102.019L194.552 102.016L194.768 101.835L194.804 101.803L195.102 101.561L195.23 101.456L195.284 101.415L195.331 101.378L195.619 101.167L195.701 101.108L195.852 100.998L196.039 100.868L196.081 100.838L196.136 100.801L196.379 100.65L196.53 100.554L196.562 100.536L196.814 100.38L196.937 100.316L196.951 100.307L197.312 100.124L197.371 100.097L197.409 100.078L197.656 99.9726L197.898 99.8673L197.923 99.8596L197.949 99.849L198.077 99.8033L198.127 99.785L198.469 99.6661L198.484 99.6614L199.008 99.5166C199.364 99.4315 199.714 99.3754 200.057 99.3478L200.565 99.3276ZM127.242 31.2664L38.905 68.3406L127.242 119.146L216.037 68.3406L127.242 31.2664ZM114.884 61.0173C122.207 57.8133 133.192 57.8133 140.058 61.0173C148.297 65.1366 148.297 71.0868 140.058 74.7484C132.735 77.9524 121.75 77.9524 114.884 74.7484C106.645 71.0868 106.645 65.1366 114.884 61.0173Z" fill="#A89157"/>
</svg>
