<svg data-v-8ac9d7dc="" xmlns="http://www.w3.org/2000/svg" width="18" height="18" viewBox="0 0 18 18" aria-hidden="true" role="img" class="item-icon icon icon-casino-category-all sm" icon="casino/category/all"><defs><linearGradient id="all_svg__a" x1="0%" y1="100%" y2="0%"><stop offset="0%" stop-color="#0095ff"></stop><stop offset="100%" stop-color="#0854c3"></stop></linearGradient></defs><path fill="#fff" d="M5.364 3h.522c.652 0 1.015.093 1.34.267.327.174.583.43.757.756.174.326.267.69.267 1.341v.522c0 .652-.093 1.015-.267 1.34a1.81 1.81 0 01-.756.757c-.326.174-.69.267-1.341.267h-.522c-.652 0-1.015-.093-1.34-.267a1.817 1.817 0 01-.757-.756C3.093 6.9 3 6.537 3 5.886v-.522c0-.652.093-1.015.267-1.34a1.81 1.81 0 01.756-.757C4.35 3.093 4.713 3 5.364 3zm6.75 0h.522c.652 0 1.015.093 1.34.267.327.174.583.43.757.756.174.326.267.69.267 1.341v.522c0 .652-.093 1.015-.267 1.34a1.81 1.81 0 01-.756.757c-.326.174-.69.267-1.341.267h-.522c-.652 0-1.015-.093-1.34-.267a1.817 1.817 0 01-.757-.756c-.174-.326-.267-.69-.267-1.341v-.522c0-.652.093-1.015.267-1.34a1.81 1.81 0 01.756-.757c.326-.174.69-.267 1.341-.267zm0 6.75h.522c.652 0 1.015.093 1.34.267.327.174.583.43.757.756.174.326.267.69.267 1.341v.522c0 .652-.093 1.015-.267 1.34a1.81 1.81 0 01-.756.757c-.326.174-.69.267-1.341.267h-.522c-.652 0-1.015-.093-1.34-.267a1.817 1.817 0 01-.757-.756c-.174-.326-.267-.69-.267-1.341v-.522c0-.652.093-1.015.267-1.34a1.81 1.81 0 01.756-.757c.326-.174.69-.267 1.341-.267zm-6.75 0h.522c.652 0 1.015.093 1.34.267.327.174.583.43.757.756.174.326.267.69.267 1.341v.522c0 .652-.093 1.015-.267 1.34a1.81 1.81 0 01-.756.757c-.326.174-.69.267-1.341.267h-.522c-.652 0-1.015-.093-1.34-.267a1.817 1.817 0 01-.757-.756C3.093 13.65 3 13.287 3 12.636v-.522c0-.652.093-1.015.267-1.34a1.81 1.81 0 01.756-.757c.326-.174.69-.267 1.341-.267z"></path><path fill="url(#all_svg__a)" d="M4.384 0h9.232c1.14 0 1.777.123 2.44.478.628.336 1.13.838 1.466 1.466.355.663.478 1.3.478 2.44v9.232c0 1.14-.123 1.777-.478 2.44a3.544 3.544 0 01-1.466 1.466c-.663.355-1.3.478-2.44.478H4.384c-1.14 0-1.777-.123-2.44-.478a3.544 3.544 0 01-1.466-1.466c-.355-.663-.478-1.3-.478-2.44V4.384c0-1.14.123-1.777.478-2.44A3.544 3.544 0 011.944.478C2.607.123 3.244 0 4.384 0zm0 1.5c-1.003 0-1.366.104-1.733.3a2.044 2.044 0 00-.85.851c-.197.367-.301.73-.301 1.733v9.232c0 1.003.104 1.366.3 1.733.197.367.484.654.851.85.367.197.73.301 1.733.301h9.232c1.003 0 1.366-.104 1.733-.3.367-.197.654-.484.85-.851.197-.367.301-.73.301-1.733V4.384c0-1.003-.104-1.366-.3-1.733a2.044 2.044 0 00-.851-.85c-.367-.197-.73-.301-1.733-.301H4.384z" class="all_svg__primary"></path></svg>