<svg data-v-8ac9d7dc="" xmlns="http://www.w3.org/2000/svg" width="18" height="18" viewBox="0 0 18 18" aria-hidden="true" role="img" class="item-icon icon icon-casino-category-multiply sm" icon="casino/category/multiply"><defs><linearGradient id="multiply_svg__a" x1="0%" y1="100%" y2="0%"><stop offset="0%" stop-color="#0095ff"></stop><stop offset="100%" stop-color="#0854c3"></stop></linearGradient></defs><path fill="url(#multiply_svg__a)" d="M9 16.5a7.5 7.5 0 100-15 7.5 7.5 0 000 15zM9 15A6 6 0 119 3a6 6 0 010 12z" class="multiply_svg__primary"></path><path fill="#fff" d="M3 10.5A2.25 2.25 0 113 15a2.25 2.25 0 010-4.5zm12 0a2.25 2.25 0 110 4.5 2.25 2.25 0 010-4.5zM9 0a2.25 2.25 0 110 4.5A2.25 2.25 0 019 0z"></path></svg>